<ttFont>
          <CharString index="0">
            rmoveto
            34.02 vlineto
            356.99 -241 225 -326 2 callsubr
            -232.02 -225 -356.99 87 callsubr
            -356.99 234 -223.98 334.01 326 239 223.98 356.99 vhcurveto
            -361 35 rmoveto
            -35 vlineto
            -180.98 -78 -116.02 -126 -142 -64 116.02 180.98 vhcurveto
            35 vlineto
            187 62.02 -35 callgsubr
            141.99 129 77 -109.02 -187 vhcurveto
            endchar
          </CharString>
          <CharString index="1">
            34 callsubr
            vlineto
            -278.02 205.99 -247.99 361 206 155 91.99 22 callgsubr
            68.02 vhcurveto
            -159 209.02 rlineto
            -78 -64 -96.99 -24 -85.02 hhcurveto
            -112.99 -80.02 126 callgsubr
            -28 hvcurveto
            657 hlineto
            -349 256 rmoveto
            -29 -311.99 vlineto
            -24 callsubr
            14 40 74 105.99 hhcurveto
            94 61 -37 -98 -3 hvcurveto
            endchar
          </CharString>
          <CharString index="2">
            402 hlineto
            -534 64 callsubr
            -100 hlineto
            -254 hlineto
            -531 52 callgsubr
            401 hlineto
            73.99 240.99 rlineto
            468.01 hlineto
            -376.01 302 rmoveto
            141 460 142 -460 rlineto
            endchar
          </CharString>
          <CharString index="3">
            rmoveto
            425 vlineto
            262 -197.02 12 callgsubr
            -259.99 -292.99 -188 -147 -216 vhcurveto
            -79 callgsubr
            hlineto
            77 36 28 68 85.01 31.01 -51 -82 vhcurveto
            -72 callsubr
            -93.03 vlineto
            return
          </CharString>
          <CharString index="4">
            289.99 return
          </CharString>
          <CharString index="5">
            -380.99 55 rmoveto
            -55 vlineto
            -264.99 -93 -152 -169 -179 -86.02 152 264.99 vhcurveto
            55 vlineto
            269.99 -78 callgsubr
            145 179 169 95 -145 -269.99 vhcurveto
            endchar
          </CharString>
          <CharString index="6">
            -509.01 -43 rmoveto
            -53 -44 31 -73 callgsubr
            -66 callsubr
            3 callsubr
            80 -6 callgsubr
            hvcurveto
            101.01 -158 hlineto
            -36 -22.02 -51 -33 -76 hhcurveto
            endchar
          </CharString>
          <CharString index="7">
            rmoveto
            53 vlineto
            -99 callgsubr
            374 268.98 275 445.99 vhcurveto
            -102 callsubr
          </CharString>
          <CharString index="8">
            rmoveto
            -169 -576 -160 576 rlineto
            -383.98 hlineto
            376.97 -1096 -38 callgsubr
            -64.99 rlineto
            105 callgsubr
            -16.02 -55 callsubr
            -30.99 -105 -17 -9.02 -1 -17.98 hhcurveto
            -266.02 vlineto
            -17.98 -93 callsubr
            7 -3 71 hhcurveto
            255 70 168 108.99 -19 callgsubr
            hvcurveto
            435.02 1242 rlineto
            endchar
          </CharString>
          <CharString index="9">
            -57 -88 callsubr
            595.98 64 callgsubr
            595.99 hmoveto
            378 759.99 hlineto
            3 callgsubr
            -188 168.02 -314.98 vhcurveto
            -375.01 -292 343 hlineto
            105 222 callgsubr
          </CharString>
          <CharString index="10">
            -355.98 -155.02 -136 -218.99 -196 170 -130 196 134 72 49 64 51 hvcurveto
            return
          </CharString>
          <CharString index="11">
            65 47 41.99 58 58.02 -47 41.99 -65 -65.99 -48 -58 callgsubr
            -58.02 return
          </CharString>
          <CharString index="12">
            358.99 return
          </CharString>
          <CharString index="13">
            146.98 hmoveto
            374.01 hlineto
            -45 callsubr
            688.99 rlineto
            165 15.02 -8 callsubr
            -81 callgsubr
            105 hhcurveto
            86.02 52 -82.99 -135 hvcurveto
            1 -428.01 rlineto
            -166 -291.98 545 668 hlineto
            379 -1.99 -203 198 -388.02 hhcurveto
            -198 -233 -40.02 -58 99 callgsubr
            hvcurveto
            -90 callgsubr
            -270.99 38 17 74 23 50 8.01 rlinecurve
            1 -6 159 callsubr
            -1 -4 -5 165 callsubr
            -4.01 rlinecurve
            -51 -57 -41 -106.99 -12 167 callgsubr
            rrcurveto
            return
          </CharString>
          <CharString index="14">
            66.99 return
          </CharString>
          <CharString index="15">
            -42 callgsubr
            235.99 hlineto
            778.02 -84 callsubr
            -641 300 541 290 -541 263 hlineto
            endchar
          </CharString>
          <CharString index="16">
            -60.99 return
          </CharString>
          <CharString index="17">
            86 -15.99 283.98 628.01001 284.99 return
          </CharString>
          <CharString index="18">
            60.99 return
          </CharString>
          <CharString index="19">
            0 -75 callsubr
            hstem
            return
          </CharString>
          <CharString index="20">
            124 vstem
            794.99 1475.99 rmoveto
            -392.01 -317.99 -323.99 -423.02 -423 317.99 -326 392.01 391 320 326 423 423.02 -320 323.99 -391 hvcurveto
            -1371.01 vmoveto
            -325 -263 271.01 353 353.01 263 268.98 325 324 263 -268.98 -353.01 -353 -263 -271.01 -324 hvcurveto
            return
          </CharString>
          <CharString index="21">
            -90 callgsubr
            -61 callgsubr
            return
          </CharString>
          <CharString index="22">
            rmoveto
            349 1 231 101 callsubr
            415 vvcurveto
            655.01 -889 -292 510 -425 vlineto
            -150 -71 90 callsubr
            -187 -1 vhcurveto
            -65.99 1 -80.02 10.02 -97 17.99 rrcurveto
            return
          </CharString>
          <CharString index="23">
            300.99 return
          </CharString>
          <CharString index="24">
            hstemhm
            35.98 -91 callgsubr
            -331.99998 -79 callgsubr
            return
          </CharString>
          <CharString index="25">
            288.99 return
          </CharString>
          <CharString index="26">
            -83.99 return
          </CharString>
          <CharString index="27">
            -286 149 -115.99 214 121 97.01 51.99 87 -93 callsubr
            vhcurveto
            return
          </CharString>
          <CharString index="28">
            -11 -48 callsubr
            150.98999 227 164.01001 -103 callsubr
            return
          </CharString>
          <CharString index="29">
            rmoveto
            -365 -1084 hlineto
            -111 231 266.02 11 callsubr
            232 hhcurveto
            return
          </CharString>
          <CharString index="30">
            -27 callgsubr
            -9 callsubr
            hlineto
            674.02 -82 callsubr
            -532.01 return
          </CharString>
          <CharString index="31">
            -76 callgsubr
            220 callgsubr
            -86 callsubr
            return
          </CharString>
          <CharString index="32">
            43 874.99 292 return
          </CharString>
          <CharString index="33">
            -21.01 return
          </CharString>
          <CharString index="34">
            -154.99 11 callgsubr
            -19 callsubr
            -822.99 360 822.99 return
          </CharString>
          <CharString index="35">
            -49.99 return
          </CharString>
          <CharString index="36">
            287.98 return
          </CharString>
          <CharString index="37">
            0 43 779.98 -38 callsubr
            186.99 288.01 hstem
            48 callgsubr
            return
          </CharString>
          <CharString index="38">
            -1164.98 return
          </CharString>
          <CharString index="39">
            318.99 hstem
            return
          </CharString>
          <CharString index="40">
            -15.99 -82 callsubr
            return
          </CharString>
          <CharString index="41">
            67.01 return
          </CharString>
          <CharString index="42">
            rmoveto
            -128 -106 -72 callsubr
            138 callgsubr
            -73 hvcurveto
            -12 35 callgsubr
            rlineto
            -336 -1082 359 753.99 hlineto
            37 1 callsubr
            41 23 212 callgsubr
            hhcurveto
            75 callsubr
            54 106 callsubr
            -121 hvcurveto
            -672.99 360 671.99 vlineto
            324 -139 106 -199 vhcurveto
            endchar
          </CharString>
          <CharString index="43">
            -81 callsubr
            -39 callsubr
            return
          </CharString>
          <CharString index="44">
            -66.99 return
          </CharString>
          <CharString index="45">
            379 vstem
            308 -20 rmoveto
            248 148 -19 callsubr
            255 hvcurveto
            820.02 -583 -292 204 -498.02 vlineto
            -92 -38 -29 callgsubr
            -81 callsubr
            -46 -48 68 callgsubr
            6 -50 vhcurveto
            1 -281.99 rlineto
            -21.99 101 63 140 callsubr
            -78 callgsubr
            hhcurveto
            return
          </CharString>
          <CharString index="46">
            -48.99 return
          </CharString>
          <CharString index="47">
            46.98 -91 callgsubr
            return
          </CharString>
          <CharString index="48">
            -73.01 return
          </CharString>
          <CharString index="49">
            312.99 return
          </CharString>
          <CharString index="50">
            -20.99 return
          </CharString>
          <CharString index="51">
            hstemhm
            49 callgsubr
            -216 234 134 234 -215 233 hintmask 11110010
            578.99 return
          </CharString>
          <CharString index="52">
            -31.99 return
          </CharString>
          <CharString index="53">
            -16 -2 -22 callgsubr
            2 -30 6 rrcurveto
            41 vlineto
            66 6 -33 callsubr
            0 callsubr
            116 callsubr
            vhcurveto
            299.01 -425 hlineto
            -150 -86.02 90 callsubr
            -178 -1 vhcurveto
            0 callgsubr
            -147 20 38 -139 hvcurveto
            -69 163 callsubr
            rlineto
            return
          </CharString>
          <CharString index="54">
            -80 callgsubr
            -1 callgsubr
            216 callsubr
            return
          </CharString>
          <CharString index="55">
            -26.01 return
          </CharString>
          <CharString index="56">
            29.99 -240 rlineto
            4 40.02 29 0 23 hhcurveto
            85 37 -40 -94 hvcurveto
            -320 vlineto
            -122 -68.02 -82 117 callsubr
            -101 -68 82 122 vhcurveto
            744.02 -379 -696.01 vlineto
            -322.99 220 -216 329.01 vhcurveto
            return
          </CharString>
          <CharString index="57">
            -84.01 -71.99 -2 callsubr
            54 callsubr
            return
          </CharString>
          <CharString index="58">
            -64 callsubr
            -79.02 21 callsubr
            -91 callsubr
            -81 callgsubr
            return
          </CharString>
          <CharString index="59">
            -20 -103 callsubr
            return
          </CharString>
          <CharString index="60">
            -77 -24 -117 -10 callsubr
            vvcurveto
            -1 -88 -35 callgsubr
            -59 callsubr
            198 -28 141.99 41 rlinecurve
            233 vlineto
            return
          </CharString>
          <CharString index="61">
            65.99 return
          </CharString>
          <CharString index="62">
            61.99 return
          </CharString>
          <CharString index="63">
            -91 callsubr
            -81 callgsubr
            84.01 -71 callgsubr
            -84.01 hvcurveto
            hintmask 11100101
            62 callsubr
            197 callsubr
            return
          </CharString>
          <CharString index="64">
            -74 callsubr
            rmoveto
            -66 callgsubr
            143 return
          </CharString>
          <CharString index="65">
            237 8 callgsubr
            return
          </CharString>
          <CharString index="66">
            81 79.99 105.99 105 -81 -46 callgsubr
            return
          </CharString>
          <CharString index="67">
            -98 callgsubr
            152.98999 200 hstemhm
            15 callsubr
            return
          </CharString>
          <CharString index="68">
            -72.01 -20 callsubr
            return
          </CharString>
          <CharString index="69">
            259.01 return
          </CharString>
          <CharString index="70">
            rmoveto
            -73 callgsubr
            19 -17 -39 -36 -18 -52 callsubr
            -48 -47 -57 callsubr
            155 callsubr
            36 -34 callgsubr
            0 callsubr
            19 -17 callgsubr
            hvcurveto
            hintmask 11110010
            67 callsubr
            -436 rmoveto
            -61 callsubr
            -37 return
          </CharString>
          <CharString index="71">
            rmoveto
            378 698 -552 -292 174 hlineto
            return
          </CharString>
          <CharString index="72">
            49.99 return
          </CharString>
          <CharString index="73">
            153.99 return
          </CharString>
          <CharString index="74">
            42.99 return
          </CharString>
          <CharString index="75">
            hstemhm
            81.98 -44 callgsubr
            274.99 -23 callsubr
            return
          </CharString>
          <CharString index="76">
            31.99 return
          </CharString>
          <CharString index="77">
            95.99 return
          </CharString>
          <CharString index="78">
            199.99 return
          </CharString>
          <CharString index="79">
            23 callsubr
            -10 callsubr
            205 hstemhm
            return
          </CharString>
          <CharString index="80">
            159 hlineto
            326.98 hlineto
            386 285 291.98 408 hvcurveto
            55 vlineto
            408 -284 -18 callsubr
            -396 vhcurveto
            298 -756 rmoveto
            -269.99 -107 -129 -182 vhcurveto
            -112.99 return
          </CharString>
          <CharString index="81">
            hstemhm
            38.99 234.99 -218.99 233 175 233 -218.01001 234 return
          </CharString>
          <CharString index="82">
            -72 callgsubr
            61 -74 callgsubr
            return
          </CharString>
          <CharString index="83">
            90.01 return
          </CharString>
          <CharString index="84">
            360.02 return
          </CharString>
          <CharString index="85">
            319.02 return
          </CharString>
          <CharString index="86">
            -28 callgsubr
            -89 callsubr
            return
          </CharString>
          <CharString index="87">
            -61 -82 callgsubr
            return
          </CharString>
          <CharString index="88">
            154.99 return
          </CharString>
          <CharString index="89">
            292.98 return
          </CharString>
          <CharString index="90">
            151 hlineto
            289 hlineto
            326 252 243 321.98 hvcurveto
            34.02 vlineto
            321.99 -250 244 -343 vhcurveto
            231 -600 rmoveto
            -200.99 -47 -75 -169 vhcurveto
            -80 return
          </CharString>
          <CharString index="91">
            -69 callgsubr
            -372 -845.99 vlineto
            -485.01 845.99 rlineto
            -373 200 callsubr
            846.99 hlineto
            485.99 -846.99 rlineto
            endchar
          </CharString>
          <CharString index="92">
            rmoveto
            124 callgsubr
            42 57 97 callgsubr
            return
          </CharString>
          <CharString index="93">
            -48 callsubr
            542 32 callsubr
            return
          </CharString>
          <CharString index="94">
            79.99 -100 callgsubr
            return
          </CharString>
          <CharString index="95">
            88 0 43 139.99 251 return
          </CharString>
          <CharString index="96">
            371.99 return
          </CharString>
          <CharString index="97">
            -124.99 return
          </CharString>
          <CharString index="98">
            217.99 return
          </CharString>
          <CharString index="99">
            47.99 return
          </CharString>
          <CharString index="100">
            79.02 return
          </CharString>
          <CharString index="101">
            187.99 return
          </CharString>
          <CharString index="102">
            rmoveto
            -254 606 rlineto
            -400.99 hlineto
            464.99 -938.99 rlineto
            -517 379.99 517 vlineto
            464.02 938.99 rlineto
            -401 hlineto
            endchar
          </CharString>
          <CharString index="103">
            1078.99 12 callsubr
            -643.99 326 -379 -618 618.99 hlineto
            -374.99 -918 rlineto
            398.99 hlineto
            380 966.98 rlineto
            return
          </CharString>
          <CharString index="104">
            379 vstem
            520.99 170 callsubr
            -188 168.02 -316 vhcurveto
            -374.99 -292 344 hlineto
            104 52 -47 -94 hvcurveto
            return
          </CharString>
          <CharString index="105">
            -20 callsubr
            -51 callgsubr
            return
          </CharString>
          <CharString index="106">
            319 rlineto
            -374 hlineto
            285 -319 rlineto
            return
          </CharString>
          <CharString index="107">
            20.99 return
          </CharString>
          <CharString index="108">
            25.99 return
          </CharString>
          <CharString index="109">
            -333.99 return
          </CharString>
          <CharString index="110">
            30.99 return
          </CharString>
          <CharString index="111">
            -93 callsubr
            46 return
          </CharString>
          <CharString index="112">
            680.98 398.99 rmoveto
            -85 3 -47 -44 -89 hhcurveto
            -128 -14.99 109 153 hvcurveto
            17 vlineto
            149 10 callgsubr
            114 126.02 return
          </CharString>
          <CharString index="113">
            rmoveto
            -215 hlineto
            -269 -390 rlineto
            -6 vlineto
            -13 vlineto
            269 -390 rlineto
            215 hlineto
            -228 return
          </CharString>
          <CharString index="114">
            -26.99 128 119.99 -16.02 -35 callgsubr
            hhcurveto
            return
          </CharString>
          <CharString index="115">
            -90 callgsubr
            -25 callsubr
            return
          </CharString>
          <CharString index="116">
            182.99 return
          </CharString>
          <CharString index="117">
            -79.02 return
          </CharString>
          <CharString index="118">
            -55.99 return
          </CharString>
          <CharString index="119">
            1210 rmoveto
            return
          </CharString>
          <CharString index="120">
            814 hmoveto
            378.99 773 hlineto
            272 -184 165 -305.99 vhcurveto
            -558 -292 529 hlineto
            75 callsubr
            50 -46 -80.02 hvcurveto
            return
          </CharString>
          <CharString index="121">
            21.02 -45 callgsubr
            -6 23 return
          </CharString>
          <CharString index="122">
            -34 callsubr
            22 callsubr
            return
          </CharString>
          <CharString index="123">
            -319.02 rlineto
            return
          </CharString>
          <CharString index="124">
            313.02 219.99 -58 callsubr
            return
          </CharString>
          <CharString index="125">
            hstem
            49 callgsubr
            171 233 vstem
            704 return
          </CharString>
          <CharString index="126">
            216 callsubr
            -78 callgsubr
            return
          </CharString>
          <CharString index="127">
            112.99 return
          </CharString>
          <CharString index="128">
            72.01 return
          </CharString>
          <CharString index="129">
            364.99 return
          </CharString>
          <CharString index="130">
            206.99 return
          </CharString>
          <CharString index="131">
            -19.99 return
          </CharString>
          <CharString index="132">
            138 162 -90.99 88 -179.02 68 callsubr
            -59 return
          </CharString>
          <CharString index="133">
            197 callgsubr
            -23 callgsubr
            vlineto
            65 callsubr
            6 69 21 116 callsubr
            vhcurveto
            227 -1334 374 hlineto
            return
          </CharString>
          <CharString index="134">
            1163 12 callsubr
            -1036 -292 187 callsubr
            -23 -143 -1 121 callgsubr
            -1 -10 callsubr
            rcurveline
            return
          </CharString>
          <CharString index="135">
            vstem
            244 hmoveto
            388 hlineto
            -140 918 rlineto
            284 292 -712.99 -283.01 hlineto
            -8 callgsubr
            24 callsubr
            rlineto
            return
          </CharString>
          <CharString index="136">
            rmoveto
            hintmask 11101100
            -93 callsubr
            35 40.02 return
          </CharString>
          <CharString index="137">
            -139 -140 hvcurveto
            196 -10.02 rlineto
            61 return
          </CharString>
          <CharString index="138">
            119 callgsubr
            135 callgsubr
            hlineto
            return
          </CharString>
          <CharString index="139">
            -103 callsubr
            hstem
            return
          </CharString>
          <CharString index="140">
            -66.01 return
          </CharString>
          <CharString index="141">
            -36.99 return
          </CharString>
          <CharString index="142">
            33.02 return
          </CharString>
          <CharString index="143">
            159.99 return
          </CharString>
          <CharString index="144">
            61 -81 callsubr
            return
          </CharString>
          <CharString index="145">
            102 callsubr
            188 callgsubr
            481.01 -918 378.99 918 217 292 vlineto
            return
          </CharString>
          <CharString index="146">
            179.99 hstem
            461.98 233 vstem
            70.98 return
          </CharString>
          <CharString index="147">
            336.02 hlineto
            291 68 callgsubr
            -193 -19 callsubr
            -272 hhcurveto
            -337 -171 -232 -321 hvcurveto
            -17 vlineto
            return
          </CharString>
          <CharString index="148">
            123 callsubr
            874.99 292 hstemhm
            117 callgsubr
            368 return
          </CharString>
          <CharString index="149">
            264 -29 296.98 164.76001 257.24 return
          </CharString>
          <CharString index="150">
            -72 -1 callgsubr
            72 -91 callsubr
            return
          </CharString>
          <CharString index="151">
            -87 vvcurveto
            -157 137 90 callsubr
            51 callsubr
            132 callsubr
            157 87 -48 return
          </CharString>
          <CharString index="152">
            79 callgsubr
            138 callgsubr
            -139 -140 hvcurveto
            196.02 -10.02 rlineto
            61 33 23 40 vhcurveto
            return
          </CharString>
          <CharString index="153">
            153 callsubr
            -374 hlineto
            285 16 callsubr
            return
          </CharString>
          <CharString index="154">
            rlineto
            332 180 -519.99 hlineto
            endchar
          </CharString>
          <CharString index="155">
            -329.01 hvcurveto
            -21 vlineto
            -315 return
          </CharString>
          <CharString index="156">
            3.99 6 -40 hvcurveto
            hintmask 01011000
            -338.98 vlineto
            hintmask 10011000
            -4.01 29 32 -45 callgsubr
            return
          </CharString>
          <CharString index="157">
            91 callsubr
            874.99 292 hstemhm
            return
          </CharString>
          <CharString index="158">
            9 callsubr
            186 132.02 return
          </CharString>
          <CharString index="159">
            -69 callsubr
            rlineto
            return
          </CharString>
          <CharString index="160">
            -11 callsubr
            vstem
            569 -416.01 rmoveto
            372 1626 -869 -292 497.01 hlineto
            return
          </CharString>
          <CharString index="161">
            19 callsubr
            hvcurveto
            return
          </CharString>
          <CharString index="162">
            320.98 37 callgsubr
            rmoveto
            65 callsubr
            48 41 58 58 -48 43 33 callsubr
            hvcurveto
            return
          </CharString>
          <CharString index="163">
            -152.99 -78 callsubr
            return
          </CharString>
          <CharString index="164">
            19 -19 296.02 hstemhm
            return
          </CharString>
          <CharString index="165">
            89 callsubr
            endchar
          </CharString>
          <CharString index="166">
            -78 callgsubr
            -76 callgsubr
            return
          </CharString>
          <CharString index="167">
            1216.98 154 callgsubr
            return
          </CharString>
          <CharString index="168">
            191 callgsubr
            -18.99 return
          </CharString>
          <CharString index="169">
            -532.99 -1 rmoveto
            return
          </CharString>
          <CharString index="170">
            -352.99 rmoveto
            return
          </CharString>
          <CharString index="171">
            -69 callgsubr
            rlineto
            return
          </CharString>
          <CharString index="172">
            66.01 return
          </CharString>
          <CharString index="173">
            -194.99 return
          </CharString>
          <CharString index="174">
            1.99 return
          </CharString>
          <CharString index="175">
            -54.99 return
          </CharString>
          <CharString index="176">
            -535 0 43 1146.99 -68 callsubr
            23 callgsubr
            -40 callgsubr
            return
          </CharString>
          <CharString index="177">
            98.98 -15.99 rmoveto
            171 135 126.97 178 34 hvcurveto
            6 hlineto
            return
          </CharString>
          <CharString index="178">
            62 -20 -82 callsubr
            434 100 callgsubr
            199.01 294.01 hstem
            return
          </CharString>
          <CharString index="179">
            1366 rmoveto
            107 callgsubr
            281 76 callsubr
            hlineto
            -340 134 callgsubr
            rlineto
            return
          </CharString>
          <CharString index="180">
            -91.01 -22 callgsubr
            118 callgsubr
            vhcurveto
            165.99 -81 rlineto
            89 85 return
          </CharString>
          <CharString index="181">
            86 callgsubr
            hstem
            return
          </CharString>
          <CharString index="182">
            89.99 return
          </CharString>
          <CharString index="183">
            13.99 return
          </CharString>
          <CharString index="184">
            -8.99 return
          </CharString>
          <CharString index="185">
            147.99 return
          </CharString>
          <CharString index="186">
            1562.99 rmoveto
            hintmask 11011100
            -339.99 3 callgsubr
            192 callsubr
            hintmask 11101100
            return
          </CharString>
          <CharString index="187">
            -14 callsubr
            -60 callsubr
            return
          </CharString>
          <CharString index="188">
            989.98 rmoveto
            -123.99 103 callgsubr
            -61 callsubr
            -65 -65 hvcurveto
            return
          </CharString>
          <CharString index="189">
            -33 callgsubr
            88 callsubr
            return
          </CharString>
          <CharString index="190">
            -103 callsubr
            hstemhm
            return
          </CharString>
          <CharString index="191">
            -549 -359.99 269.98 1537.00002 271.99 hstem
            return
          </CharString>
          <CharString index="192">
            158.98 414 vvcurveto
            667.01 return
          </CharString>
          <CharString index="193">
            917.99 292 hstem
            return
          </CharString>
          <CharString index="194">
            vhcurveto
            34 callgsubr
            vlineto
            return
          </CharString>
          <CharString index="195">
            365.99 return
          </CharString>
          <CharString index="196">
            -58 50 -41 64 hvcurveto
            return
          </CharString>
          <CharString index="197">
            -74.02 return
          </CharString>
          <CharString index="198">
            -15.99 101 callgsubr
            162 callgsubr
            43 -34.01 43 return
          </CharString>
          <CharString index="199">
            1259.99 23 callsubr
            -206.99 148 callsubr
            return
          </CharString>
          <CharString index="200">
            170 callsubr
            -187 168.02 return
          </CharString>
          <CharString index="201">
            144 callsubr
            -175 152 hstemhm
            return
          </CharString>
          <CharString index="202">
            rlineto
            69 callgsubr
            9.99 30 return
          </CharString>
          <CharString index="203">
            187 185 133.02 return
          </CharString>
          <CharString index="204">
            1101.99 rmoveto
            return
          </CharString>
          <CharString index="205">
            199 215 292 return
          </CharString>
          <CharString index="206">
            294.99 return
          </CharString>
          <CharString index="207">
            195.99 return
          </CharString>
          <CharString index="208">
            158.99 return
          </CharString>
          <CharString index="209">
            378.98 return
          </CharString>
          <CharString index="210">
            115.02 return
          </CharString>
          <CharString index="211">
            253.99 return
          </CharString>
          <CharString index="212">
            64.99 return
          </CharString>
          <CharString index="213">
            -20.01 return
          </CharString>
          <CharString index="214">
            120 callsubr
            hlineto
            -106.99 6.98 -81 -35 -105 hhcurveto
            return
          </CharString>
          <CharString index="215">
            258.01 -134.98 151 -227 -81 -105 -28 -41 -75 vhcurveto
            return
          </CharString>
          <CharString index="216">
            hlineto
            -12 -106.99 -56 -14 -91 callsubr
            vvcurveto
            -58 49 -41 64 return
          </CharString>
          <CharString index="217">
            157 -81 184 181 140 117 return
          </CharString>
          <CharString index="218">
            127 107 callgsubr
            return
          </CharString>
          <CharString index="219">
            89.01 return
          </CharString>
          <CharString index="220">
            -73.99 return
          </CharString>
          <CharString index="221">
            307.02 return
          </CharString>
          <CharString index="222">
            137.99 return
          </CharString>
          <CharString index="223">
            78.01 return
          </CharString>
          <CharString index="224">
            -101.99 return
          </CharString>
          <CharString index="225">
            67.02 return
          </CharString>
          <CharString index="226">
            -115.02 return
          </CharString>
          <CharString index="227">
            -357.99 return
          </CharString>
          <CharString index="228">
            hstemhm
            52.98 -23 callsubr
            -320 332.98 return
          </CharString>
          <CharString index="229">
            -215 hlineto
            228 -398.99 -228 -400 rlineto
            215 hlineto
            return
          </CharString>
          <CharString index="230">
            -57 callsubr
            302.98 -287.98999 43 -37 43 return
          </CharString>
          <CharString index="231">
            -47 -52 callsubr
            return
          </CharString>
          <CharString index="232">
            -58 -35 callsubr
            return
          </CharString>
          <CharString index="233">
            vhcurveto
            hintmask 11101100
            66 callsubr
            206 rmoveto
            -73 callgsubr
            19 return
          </CharString>
          <CharString index="234">
            -208.02 rlineto
            252 133 103.02 156 return
          </CharString>
          <CharString index="235">
            143 callsubr
            hvcurveto
            return
          </CharString>
          <CharString index="236">
            835.01 rcurveline
            -381.01 hlineto
            180 -793 13 return
          </CharString>
          <CharString index="237">
            -67 callgsubr
            vstem
            432.99 return
          </CharString>
          <CharString index="238">
            -100 callgsubr
            300.99998 return
          </CharString>
          <CharString index="239">
            74.02 return
          </CharString>
          <CharString index="240">
            136 145 hvcurveto
            return
          </CharString>
          <CharString index="241">
            94.99 return
          </CharString>
          <CharString index="242">
            155.02 return
          </CharString>
          <CharString index="243">
            -50.02 return
          </CharString>
          <CharString index="244">
            108.01 return
          </CharString>
          <CharString index="245">
            12.99 return
          </CharString>
          <CharString index="246">
            -73.02 return
          </CharString>
          <CharString index="247">
            -9.01 return
          </CharString>
          <CharString index="248">
            -74 117 116 82 74 107 106 -82 74 -116 hvcurveto
            hintmask 11010000
            return
          </CharString>
          <CharString index="249">
            18.98 -18.98 98 callgsubr
            return
          </CharString>
          <CharString index="250">
            191 callsubr
            -41 96 callgsubr
            return
          </CharString>
          <CharString index="251">
            -1130 -647 200 94.01 -29 callsubr
            return
          </CharString>
          <CharString index="252">
            88 callsubr
            227.01 183 callsubr
            return
          </CharString>
          <CharString index="253">
            -59 callsubr
            -89 callsubr
            -81 callsubr
            return
          </CharString>
          <CharString index="254">
            134 callgsubr
            192 callsubr
            return
          </CharString>
          <CharString index="255">
            286 -204 205 hstemhm
            return
          </CharString>
          <CharString index="256">
            397.98 234 return
          </CharString>
          <CharString index="257">
            92 -79 callgsubr
            return
          </CharString>
          <CharString index="258">
            -17 1251.98 return
          </CharString>
          <CharString index="259">
            -8 1418.99 return
          </CharString>
          <CharString index="260">
            -22 callsubr
            rlineto
            return
          </CharString>
          <CharString index="261">
            -130.99 return
          </CharString>
          <CharString index="262">
            26.01 return
          </CharString>
          <CharString index="263">
            7.99 return
          </CharString>
          <CharString index="264">
            142.99 return
          </CharString>
          <CharString index="265">
            177.99 return
          </CharString>
          <CharString index="266">
            -3.99 return
          </CharString>
          <CharString index="267">
            111 149 vhcurveto
            return
          </CharString>
          <CharString index="268">
            301.02 return
          </CharString>
          <CharString index="269">
            -340.01 return
          </CharString>
          <CharString index="270">
            -274.98 return
          </CharString>
          <CharString index="271">
            -132.02 return
          </CharString>
          <CharString index="272">
            -4.02 return
          </CharString>
          <CharString index="273">
            26.99 return
          </CharString>
          <CharString index="274">
            185.99 return
          </CharString>
          <CharString index="275">
            194.99 return
          </CharString>
          <CharString index="276">
            hstem
            149 callsubr
            vstem
            707.99 return
          </CharString>
          <CharString index="277">
            hmoveto
            379 759.99 hlineto
            3 callgsubr
            return
          </CharString>
          <CharString index="278">
            -469 493.99 248.99 hstem
            return
          </CharString>
          <CharString index="279">
            rmoveto
            -76 445.01 -50 hlineto
            -184 -1 hlineto
            return
          </CharString>
          <CharString index="280">
            -172.02 vlineto
            -136 return
          </CharString>
          <CharString index="281">
            125 callsubr
            -41 64 return
          </CharString>
          <CharString index="282">
            -273.98 return
          </CharString>
          <CharString index="283">
            -146.99 return
          </CharString>
          <CharString index="284">
            666.99 return
          </CharString>
          <CharString index="285">
            -204.99 return
          </CharString>
          <CharString index="286">
            106.99 return
          </CharString>
          <CharString index="287">
            -277.02 return
          </CharString>
          <CharString index="288">
            -113.99 return
          </CharString>
          <CharString index="289">
            -114.01 return
          </CharString>
          <CharString index="290">
            366.02 return
          </CharString>
          <CharString index="291">
            143.99 return
          </CharString>
          <CharString index="292">
            -113.01 return
          </CharString>
          <CharString index="293">
            392.99 return
          </CharString>
          <CharString index="294">
            20 callsubr
            hlineto
            106 callgsubr
            -77 return
          </CharString>
          <CharString index="295">
            72 196 callgsubr
            return
          </CharString>
          <CharString index="296">
            104 hlineto
            194 104 -134 -263 hvcurveto
            endchar
          </CharString>
          <CharString index="297">
            77 callgsubr
            hstemhm
            return
          </CharString>
          <CharString index="298">
            -64 -72 callsubr
            return
          </CharString>
          <CharString index="299">
            rlineto
            -205 hlineto
            return
          </CharString>
          <CharString index="300">
            348.99 vstem
            1082.98 return
          </CharString>
          <CharString index="301">
            207 -207 148 callsubr
            return
          </CharString>
          <CharString index="302">
            79 callgsubr
            -95 -139 -140 hvcurveto
            return
          </CharString>
          <CharString index="303">
            -289.02 -162 -163 -186 return
          </CharString>
          <CharString index="304">
            82 callgsubr
            -61 return
          </CharString>
          <CharString index="305">
            65 hlineto
            187 44 -88 -186 hvcurveto
            endchar
          </CharString>
          <CharString index="306">
            rmoveto
            -73 -57 -23 -35 -41 hvcurveto
            return
          </CharString>
          <CharString index="307">
            -77 callgsubr
            373 return
          </CharString>
          <CharString index="308">
            1153.99 return
          </CharString>
          <CharString index="309">
            -141.99 return
          </CharString>
          <CharString index="310">
            386.99 return
          </CharString>
          <CharString index="311">
            -45.02 return
          </CharString>
          <CharString index="312">
            174.98 return
          </CharString>
          <CharString index="313">
            409.99 return
          </CharString>
          <CharString index="314">
            -0.99 return
          </CharString>
          <CharString index="315">
            373.98 return
          </CharString>
          <CharString index="316">
            -334.01 return
          </CharString>
          <CharString index="317">
            -117.99 return
          </CharString>
          <CharString index="318">
            96.99 return
          </CharString>
          <CharString index="319">
            44.99 return
          </CharString>
          <CharString index="320">
            -177.99 return
          </CharString>
          <CharString index="321">
            -241.99 return
          </CharString>
          <CharString index="322">
            241.99 return
          </CharString>
          <CharString index="323">
            -30 callgsubr
            -91 callsubr
            return
          </CharString>
          <CharString index="324">
            111 callsubr
            281 hlineto
            return
          </CharString>
          <CharString index="325">
            125 hstem
            78 callgsubr
            122 return
          </CharString>
          <CharString index="326">
            22 callgsubr
            -95 callsubr
            return
          </CharString>
          <CharString index="327">
            29 0 153 callgsubr
            268 return
          </CharString>
          <CharString index="328">
            rlineto
            246 hlineto
            endchar
          </CharString>
        <CharString name=".notdef">
          221 -555 167 callsubr
          90.01999 183 callgsubr
          -24 callsubr
          -45 callsubr
          88.98 127.01 1 callgsubr
          161.99 112 callsubr
          65 151.01001 60 90.98999 62.99 89.02 100 88.98999 73.01 91.99 211 callsubr
          92.02 70 88.98999 100 89.01001 181 hstemhm
          250.98 200 89.01001 1 callgsubr
          102 callgsubr
          269.98 -88.98 1 callgsubr
          112 callsubr
          117 callgsubr
          hintmask 111111111111111101100000
          1106.98 2146 rmoveto
          -856 -2701 856 hlineto
          -207.99 2520 rmoveto
          -89 -178 -100 178 102 callgsubr
          -448 1 callgsubr
          158 callsubr
          100 -175 89 vlineto
          267.02 -348 rmoveto
          -189 178 -92 -448 281 vlineto
          158 callsubr
          137 callgsubr
          rmoveto
          102 callgsubr
          -97 1 callgsubr
          hlineto
          270.01 -165 rmoveto
          102 callgsubr
          -178 -189 -270 89 158 callsubr
          100 213 callsubr
          1 callgsubr
          vlineto
          448 -162 rmoveto
          -269.98 -448 219 callsubr
          179 vlineto
          112 callsubr
          -329.99 rmoveto
          -305.01 -448 305.01 89 -216 269.98 127 102 callgsubr
          -61.99 137 callgsubr
          151 vlineto
          270.01 -467.01 rmoveto
          -304.98 -448 304.98 vlineto
          hintmask 111100000000001010100000
          -95 callsubr
          102 callgsubr
          rmoveto
          -269.98 -127.02 269.98 hlineto
          112 callsubr
          -150.98 rmoveto
          141 callgsubr
          -86 vlineto
          -189 213 callgsubr
          rlineto
          275.01 141 callgsubr
          -448 -24 callsubr
          hlineto
          189 183 callgsubr
          rlineto
          -189 -24 callsubr
          hlineto
          endchar
        </CharString>
        <CharString name=".null">
          -1130 endchar
        </CharString>
        <CharString name="A">
          -89 callgsubr
          hstem
          152 callsubr
          vstem
          1008.99 hmoveto
          -105 callsubr
        </CharString>
        <CharString name="A.smcp">
          -12 callsubr
          hstem
          151 callsubr
          vstem
          874.99 hmoveto
          -105 callgsubr
        </CharString>
        <CharString name="AE">
          796 0 99 callsubr
          29 99 callsubr
          -26.99 99 callsubr
          274.01 99 callsubr
          hstemhm
          913.48 350.49 -322 346.5 hintmask 00000000
          hintmask 10110100
          1294.99 99 callsubr
          rmoveto
          -13 297 rlineto
          422.01 295 hlineto
          hintmask 10111000
          -434.01 hlineto
          -12 274 rlineto
          527.02 99 callsubr
          -539.02 hlineto
          -285.98 hlineto
          -226.02 hlineto
          -711.99 52 callgsubr
          413 hlineto
          hintmask 11010100
          144 323.99 rlineto
          356 hlineto
          hintmask 10110100
          76 callsubr
          -323.99 rlineto
          165 hlineto
          731 99 callsubr
          hlineto
          hintmask 11011000
          -1135 324 rmoveto
          194 436 19 -436 rlineto
          endchar
        </CharString>
        <CharString name="AE.smcp">
          501 0 -71 callsubr
          -119 283.01 7.00002 -82 callsubr
          129.01 190 callgsubr
          667.97 349.51 -327.51 344.51 hintmask 10111000
          1037.99 -71 callsubr
          rmoveto
          -7 171 rlineto
          440.02 289 -451.01 hlineto
          -5 129 rlineto
          516 287.99 -528 hlineto
          -301 hlineto
          -253 hlineto
          -528.97 52 callsubr
          390.98 hlineto
          hintmask 01010100
          69 168.98 rlineto
          307 hlineto
          hintmask 10110100
          6 -168.98 rlineto
          137 callsubr
          hlineto
          775.99 -71 callsubr
          hlineto
          hintmask 01011000
          -1080 164 rmoveto
          163 397.99 16 -397.99 rlineto
          endchar
        </CharString>
        <CharString name="Aacute">
          -89 callgsubr
          71 -68 callsubr
          152 callsubr
          vstem
          1094.98 1845.99 rmoveto
          -373 hlineto
          32 callgsubr
          192 -1526.99 rmoveto
          -105 callsubr
        </CharString>
        <CharString name="Aacute.smcp">
          -12 callsubr
          812.98999 -68 callsubr
          151 callsubr
          vstem
          1002.99 1565.98 rmoveto
          -373 hlineto
          31 callsubr
          150 -1246.99 rmoveto
          -105 callgsubr
        </CharString>
        <CharString name="Acircumflex">
          -89 callgsubr
          93 87 callgsubr
          152 callsubr
          hintmask 00000000
          hintmask 11101100
          703 1675.98 rmoveto
          107 callgsubr
          281 181 callgsubr
          hlineto
          -340 3 callgsubr
          192 callsubr
          hintmask 11110100
          2 callsubr
          -277 58 callgsubr
          467 -1548.98 rmoveto
          -105 callsubr
        </CharString>
        <CharString name="Acircumflex.smcp">
          -12 callsubr
          834.98999 57 callsubr
          151 callsubr
          hintmask 00000000
          hintmask 11011000
          610 1396 rmoveto
          162 -127.02 rlineto
          281 181 callgsubr
          hlineto
          -340 282 192 callsubr
          hintmask 11101000
          2 callsubr
          -277.01 58 callgsubr
          426 -1268.98 rmoveto
          -105 callgsubr
        </CharString>
        <CharString name="Adieresis">
          -89 callgsubr
          78.01001 16 callgsubr
          276.99 -12 callgsubr
          -58 callsubr
          hintmask 11101110
          965.98 1535 rmoveto
          84 -71 callgsubr
          -84 -64 callsubr
          -79.01 21 callsubr
          196 callgsubr
          hintmask 11110110
          -533 -1 rmoveto
          -21 callsubr
          -46 callgsubr
          79 -25 callsubr
          -81 callsubr
          -72 -61 -79 -51 callgsubr
          188 callsubr
          576 -1533.99 rmoveto
          -105 callsubr
        </CharString>
        <CharString name="Adieresis.smcp">
          -12 callsubr
          820 16 callgsubr
          133 callgsubr
          -12 callgsubr
          -58 callsubr
          hintmask 11011100
          873.98 1254.99 rmoveto
          -75 callgsubr
          -49 callsubr
          hvcurveto
          hintmask 11101100
          62 callsubr
          -76 callsubr
          -84.01 -53 callsubr
          84.01 hvcurveto
          534 -1253.99 rmoveto
          -105 callgsubr
        </CharString>
        <CharString name="Agrave">
          -89 callgsubr
          71 -68 callsubr
          152 callsubr
          vstem
          910.99 1526.99 130 callgsubr
          203 callsubr
          -1526.99 rmoveto
          -105 callsubr
        </CharString>
        <CharString name="Agrave.smcp">
          -12 callsubr
          812.98999 -68 callsubr
          151 callsubr
          vstem
          819 1246.99 rmoveto
          -200 -1 callsubr
          345 -1246.99 rmoveto
          -105 callgsubr
        </CharString>
        <CharString name="Aring">
          -89 callgsubr
          75 96.01 203.00002 99 hstem
          479.98 124 203.01001 123.99 vstem
          704.98 1530.98 rmoveto
          132.02 93.98 89 108.02 9 callgsubr
          -93.98 93 164 callsubr
          154 callsubr
          -94 -93 -18 callgsubr
          -108.02 94 -89 41 callgsubr
          -33 callsubr
          58.02 57 -34 callgsubr
          45 64 hvcurveto
          304 -1829.99 rmoveto
          -105 callsubr
        </CharString>
        <CharString name="Aring.smcp">
          -12 callsubr
          816.98 96.01 203 99 hstem
          387.99 124 203 123.99 vstem
          612.99 1250.98 rmoveto
          132 94 112 callsubr
          137 callsubr
          9 callgsubr
          -94 93 -132 154 callsubr
          -94 -93 -18 callgsubr
          166 callgsubr
          94 -89.01 41 callgsubr
          43 58 57 -34 callgsubr
          45 64 hvcurveto
          262 -1549.99 rmoveto
          -105 callgsubr
        </CharString>
        <CharString name="Atilde">
          -89 callgsubr
          107.01001 -28 callsubr
          152 callsubr
          -1101.01001 196 392 195 hintmask 00000000
          hintmask 11101010
          578.99 1644.99 rmoveto
          hintmask 11110001
          101 115 callgsubr
          138 95 111 callgsubr
          -195 88 callgsubr
          hintmask 11101010
          36 callgsubr
          -82 21 callgsubr
          113 callgsubr
          hhcurveto
          79 callgsubr
          44 callgsubr
          33 23 40 vhcurveto
          hintmask 11100100
          430 -1644.99 rmoveto
          -105 callsubr
        </CharString>
        <CharString name="Atilde.smcp">
          -12 callsubr
          849 -28 callsubr
          151 callsubr
          -1016.98999 100 callsubr
          392.01 168 callsubr
          hintmask 00000000
          hintmask 11010100
          486.99 1364.99 rmoveto
          hintmask 11100010
          100.99 58 -82 122.02 hhcurveto
          115 callsubr
          134 callsubr
          133 callsubr
          66 callsubr
          88 callgsubr
          hintmask 11010100
          -95 -82 21 callgsubr
          -103 hhcurveto
          79 callgsubr
          138 callgsubr
          30 callsubr
          35 callsubr
          23 40 vhcurveto
          hintmask 11001000
          388 -1364.99 rmoveto
          -105 callgsubr
        </CharString>
        <CharString name="B">
          198 0 -84 callsubr
          299.98999 249.99 303.01 -52 callgsubr
          174 callgsubr
          372 373 -342 -11 callsubr
          hintmask 11110100
          1020.99 736.99 rmoveto
          hintmask 11111000
          150 57 49 126 130 vvcurveto
          272 -221 134 -368 vhcurveto
          -529 -77 callgsubr
          157 callsubr
          hlineto
          448 hlineto
          hintmask 11110100
          206 callgsubr
          187 184 callsubr
          290 76 callgsubr
          -59 135 -170 43 hvcurveto
          -390 417 rmoveto
          hintmask 11111000
          152 64 -46 185 callsubr
          -98 -54 -46 -164.99 hvcurveto
          -153 303 hlineto
          hintmask 11110100
          -9 callsubr
          -853 rmoveto
          -217.99 300 233 hlineto
          124.01 46 -63 -96.99 139 callsubr
          -48 -63 callsubr
          -137 hvcurveto
          endchar
        </CharString>
        <CharString name="B.smcp">
          22 0 -82 callsubr
          164 231.99 189.99998 83 callsubr
          -87 callgsubr
          278.99998 -100 callgsubr
          -334.98 -79 callgsubr
          hintmask 11111000
          902.98 579.99 rmoveto
          132.02 47 -34 callgsubr
          110 104 vvcurveto
          217 -189.99 179 callsubr
          -333 vhcurveto
          -476 -69 callsubr
          115 callsubr
          hlineto
          388.02 hlineto
          hintmask 11110100
          336 36 callsubr
          -30 callsubr
          238 hvcurveto
          hintmask 11111000
          -24 callsubr
          -45 205 callgsubr
          -147 38 vhcurveto
          -315 295 rmoveto
          86.02 -19 callgsubr
          -25 -74 -62 -35 -29 -105 hvcurveto
          -139 190 hlineto
          hintmask 11110100
          166 -586 rmoveto
          -166 164 181 hlineto
          22 callgsubr
          32 -30 -54 -29 -30 -51 -108 hvcurveto
          endchar
        </CharString>
        <CharString name="C">
          216 -20 307.99 881.98999 114 callsubr
          hstem
          -45 callsubr
          380 vstem
          1294.99 501.99 rmoveto
          -371 hlineto
          99 callgsubr
          -1 141 callgsubr
          -60 176 callsubr
          hhcurveto
          -60 callgsubr
          -446.02 228 -270.98 396 360 238 23 callsubr
          315 11 vhcurveto
          endchar
        </CharString>
        <CharString name="C.smcp">
          31 -67 callsubr
          618.98 32 callsubr
          -7 callgsubr
          -23 callsubr
          vstem
          1125.99 414.99 rmoveto
          107 callsubr
          -62 callgsubr
          -370 196 -217.98 351.99 311.01 219 163.98 267 7 vhcurveto
          endchar
        </CharString>
        <CharString name="C.ss06">
          232 -57 callsubr
          300.97 895.01001 301.99 198 callgsubr
          vstem
          1315.98 501.99 rmoveto
          -372 hlineto
          -140 -14.99 -77 -82 -152 hhcurveto
          -186 -82 150.02 279 hvcurveto
          39 vlineto
          3 callgsubr
          112 145.02 160.02 180.98 43 -78 -154 19.01 vhcurveto
          372 hlineto
          331.02 -30 -197 203 -387.99 hhcurveto
          -370.02 -275.99 -275 -456.01 hvcurveto
          34 callsubr
          vlineto
          -456.01 249 175 callsubr
          186 callsubr
          367 220 184 callgsubr
          351.99 29 vhcurveto
          endchar
        </CharString>
        <CharString name="Ccedilla">
          216 217 callgsubr
          263.01 43 -42.01 43 1134.98 114 callsubr
          hstemhm
          -45 callsubr
          380 211.98999 313.99 hintmask 10111100
          686 -71 callsubr
          rmoveto
          -60 callgsubr
          -392.01 176 -256 310.99 -56.99 vhcurveto
          -38 callgsubr
          -10 callsubr
          rlineto
          93 -5 -19 callgsubr
          -16.02 -46 vvcurveto
          -51 -55 callsubr
          -57 callsubr
          -46 vhcurveto
          6.98 127 callsubr
          hvcurveto
          hintmask 11011100
          115 -77 45 -72 callgsubr
          13 vhcurveto
          6 139 callgsubr
          3 callgsubr
          45.98 180 192 69 callgsubr
          273 rlinecurve
          -371 hlineto
          hintmask 10111100
          99 callgsubr
          -1 141 callgsubr
          -60 176 callsubr
          hhcurveto
          endchar
        </CharString>
        <CharString name="Ccedilla.smcp">
          31 -474.99 117 callgsubr
          263 43 852.98 32 callsubr
          -7 callgsubr
          -23 callsubr
          158.98 313.99 vstem
          588.98 273 rmoveto
          -62 callgsubr
          -320 146 -205.99 268 -72 callsubr
          vhcurveto
          -38 callgsubr
          -124.01 rlineto
          93 -5 -19 callgsubr
          -16 -46 vvcurveto
          165 callgsubr
          -55 callsubr
          -57 callsubr
          -46 vhcurveto
          6.99 -208 rlineto
          252 133 103 156 115 118 callgsubr
          -17 callgsubr
          -59 callsubr
          138 callsubr
          hvcurveto
          6 139 callgsubr
          234 42.98 156 151 6 225 rlinecurve
          107 callsubr
          endchar
        </CharString>
        <CharString name="D">
          192 128 callgsubr
          101.99 373 402 381.99 vstem
          578.99 -11 callgsubr
          -104 hlineto
          -42 callgsubr
          -27 callsubr
          853 189 callsubr
        </CharString>
        <CharString name="D.smcp">
          3 0 -82 callsubr
          585.98999 -64 callgsubr
          295.99998 362 vstem
          497.99 5 callgsubr
          -65 hlineto
          -27 callgsubr
          -17 callsubr
          586 198 callsubr
        </CharString>
        <CharString name="D.ss06">
          234 128 callgsubr
          98 373 461.98 373 vstem
          563 -11 callgsubr
          -92 hlineto
          -42 callgsubr
          101 callsubr
          hlineto
          314 hlineto
          454 281 319 203 callsubr
          hvcurveto
          43 vlineto
          203 callsubr
          -280 320 -462.99 vhcurveto
          369.99 -750 rmoveto
          -211 -92 -193.99 -298 vhcurveto
          -80 callgsubr
          853 64 hlineto
          308.98 89 66 callgsubr
          -203.02 hvcurveto
          endchar
        </CharString>
        <CharString name="E">
          13 0 -83 callgsubr
          hstem
          101.99 373 vstem
          1119.99 201 callsubr
          rmoveto
          302 -645 vlineto
          -92 callsubr
        </CharString>
        <CharString name="E.smcp">
          -68 callgsubr
          130 callsubr
          456.99 rmoveto
          447 290 -447 128 539 290 -539 hlineto
          -77 callsubr
          hlineto
          endchar
        </CharString>
        <CharString name="Eacute">
          13 0 -83 callgsubr
          118 callsubr
          318.99 -24 callgsubr
          vstem
          1039.99 1841.99 rmoveto
          -373 hlineto
          32 callgsubr
          -79 callgsubr
          -369.01 rmoveto
          302 -645 vlineto
          -92 callsubr
        </CharString>
        <CharString name="Eacute.smcp">
          -68 callgsubr
          82.01 318.99 -67 callgsubr
          vstem
          957.99 1565.98 rmoveto
          -373 hlineto
          32 callgsubr
          -247 -790 rmoveto
          447 290 -447 128 539 290 -539 hlineto
          -77 callsubr
          hlineto
          endchar
        </CharString>
        <CharString name="Ecircumflex">
          13 0 -83 callgsubr
          89.02 19 -19 295.99 174 callgsubr
          hintmask 00000000
          hintmask 11101100
          647.99 1671.99 rmoveto
          107 callgsubr
          281.01 14 hlineto
          129 callgsubr
          hintmask 11110100
          209 callsubr
          209 callgsubr
          rlineto
          -19 275 vlineto
          633 -391 rmoveto
          302 -645 vlineto
          -92 callsubr
        </CharString>
        <CharString name="Ecircumflex.smcp">
          -68 callgsubr
          104.01 57 callsubr
          -87 callgsubr
          hintmask 00000000
          hintmask 11101100
          669 1565 rmoveto
          -205 hlineto
          hintmask 11110100
          -334 131 callgsubr
          hintmask 11101100
          19 callgsubr
          281 181 callgsubr
          hlineto
          -37 -408 rmoveto
          290 -539 vlineto
          -77 callsubr
          168 447 290 -447 128 hlineto
          endchar
        </CharString>
        <CharString name="Edieresis">
          13 0 -83 callgsubr
          132 callsubr
          279.98 -278.99 280 174 callgsubr
          -253.01001 17 callsubr
          hintmask 11101101
          910.99 1530.98 rmoveto
          -81 callgsubr
          73.02 61 -90 callgsubr
          -7 callsubr
          139 callsubr
          -89 callsubr
          -81 callsubr
          82 callgsubr
          -91 callsubr
          10 callsubr
          -82 callgsubr
          -30 callgsubr
          -61 -78 callgsubr
          hvcurveto
          hintmask 11110011
          -533 207 callsubr
          rmoveto
          -76 callgsubr
          -89 callsubr
          79 -46 callgsubr
          146 callsubr
          -84 -72.01 -91 callsubr
          -51 callgsubr
          -79 95 callgsubr
          741.99 -376.01 rmoveto
          302 -645 vlineto
          hintmask 11101101
          -92 callsubr
        </CharString>
        <CharString name="Edieresis.smcp">
          -68 callgsubr
          89.02 16 callgsubr
          -87 callgsubr
          -293.00002 17 callsubr
          hintmask 11101101
          828.99 1254.99 rmoveto
          -75 callgsubr
          -84 -53 callsubr
          84 hvcurveto
          hintmask 11110011
          62 callsubr
          -76 callsubr
          -74 callgsubr
          43 callsubr
          -78 callgsubr
          hvcurveto
          675.99 -379 rmoveto
          290 -539 vlineto
          hintmask 11101101
          -77 callsubr
          168 447 290 -447 128 hlineto
          endchar
        </CharString>
        <CharString name="Egrave">
          13 0 -83 callgsubr
          118 callsubr
          318.99 -24 callgsubr
          vstem
          855.98 1523 rmoveto
          66 callgsubr
          -1 callsubr
          553 -369.01 rmoveto
          302 -645 vlineto
          -92 callsubr
        </CharString>
        <CharString name="Egrave.smcp">
          -68 callgsubr
          82.01 318.99 -67 callgsubr
          vstem
          773.98 1246.99 rmoveto
          66 callgsubr
          -1 callsubr
          -52 -790 rmoveto
          447 290 -447 128 539 290 -539 hlineto
          -77 callsubr
          hlineto
          endchar
        </CharString>
        <CharString name="Eth">
          192 0 -84 callsubr
          326 -29 callsubr
          326.99998 4 callgsubr
          402 381.99 vstem
          578.99 -11 callgsubr
          -104 hlineto
          -373 -629 79 callgsubr
          66 callgsubr
          136.99 -627 -27 callsubr
          326 234 -29 callsubr
          -234 327 189 callsubr
        </CharString>
        <CharString name="Eth.smcp">
          3 0 -82 callsubr
          186 -29 callsubr
          199.99998 -64 callgsubr
          295.99998 362 vstem
          497.99 5 callgsubr
          -65 hlineto
          -360 -490 156 callgsubr
          66 callgsubr
          136 callgsubr
          -474.99 -17 callsubr
          186 172 -29 callsubr
          -172 200 198 callsubr
        </CharString>
        <CharString name="Euro">
          62 -19 -84 callsubr
          217 169 118.98999 167 220.01001 -84 callsubr
          hstem
          246.99 374 vstem
          905.99 281.98 rmoveto
          -163 -112 29 188 77 callsubr
          hvcurveto
          301 169 -302 23 callgsubr
          302 167.02 -297 hlineto
          163 22 2 callgsubr
          57 167 hhcurveto
          52 -45 callsubr
          -13 -17 44.02 hvcurveto
          46 299.99 rlineto
          19 -74 -80.02 12 -76 hhcurveto
          -355.99 -252 -181 -339.99 -33 hvcurveto
          -166 -167.02 163 -118.99 -163 -169 163 hlineto
          -342 12 253 -176 343 hhcurveto
          93 91 11 19 82 hvcurveto
          -46 298.99 rlineto
          24 callsubr
          -52 -57.02 -8.01 -59.99 hhcurveto
          endchar
        </CharString>
        <CharString name="Euro.smcp">
          -84 -15.99 289.98 74.00002 -29 callsubr
          55.01 200.99 92.01999 83 callsubr
          -85 callgsubr
          900.99 -759.99 -100 callgsubr
          hintmask 11001000
          753.99 273.98 rmoveto
          -81 -49 25 49 -38 callgsubr
          hvcurveto
          308 -29 callsubr
          hlineto
          hintmask 11000100
          -332 hlineto
          hintmask 11110100
          55 332 200.99 -310 vlineto
          59 25 -73 callgsubr
          35 callsubr
          82 hhcurveto
          -7 callsubr
          47 -10.02 -19.01 75 hvcurveto
          0 callsubr
          284.02 rlineto
          1 callsubr
          -82 callgsubr
          -58 69 callgsubr
          -85.02 hhcurveto
          -284 -188.99 -147 -235 165 callgsubr
          hvcurveto
          -154.99 -200.99 141 hlineto
          hintmask 11000100
          -55 -141 66 callgsubr
          -34 callsubr
          vlineto
          -220 50.02 191 -143.99 286 hhcurveto
          -81 callgsubr
          58.02 11 19.99 75.98 hvcurveto
          -18.99 284 rlineto
          hintmask 11001000
          -11 33 callsubr
          68 callsubr
          -14 -78.01 hhcurveto
          endchar
        </CharString>
        <CharString name="F">
          -11 0 43 519.99 -84 callsubr
          289.99998 4 callgsubr
          vstem
          1088 201 callsubr
          rmoveto
          302 -613.01 vlineto
          -373 200 callsubr
          563 177 callgsubr
          -84 callsubr
          -561.99 290 hlineto
          endchar
        </CharString>
        <CharString name="F.smcp">
          -170 0 43 380.99 -103 callsubr
          160.99998 -64 callgsubr
          vstem
          940.99 874.99 rmoveto
          290 -508 vlineto
          -27 callgsubr
          360 424 474.01 290 -474.01 161 hlineto
          endchar
        </CharString>
        <CharString name="G">
          267 -20 -84 callsubr
          247 263.98 384.01 161 callsubr
          hstem
          76.98 379 481 374 vstem
          1310.99 175.98 rmoveto
          616 -605 -263.99 231 -198 vlineto
          -23 -27 -62 -52 callsubr
          -97.01 hhcurveto
          -209.99 185 callgsubr
          132 277 hvcurveto
          77 vlineto
          155 callgsubr
          137 callsubr
          126 152.99 154 62 -68 -141 19 vhcurveto
          357 hlineto
          161 callsubr
          -27.01 -167 209 -412 hhcurveto
          -358.01 -268 -255.02 -457 hvcurveto
          -75 vlineto
          -457.01 253 -252.99 391.99 312.01 199 113 82.99 -23 callgsubr
          vhcurveto
          endchar
        </CharString>
        <CharString name="G.smcp">
          49 -67 callsubr
          135.98 247 236 32 callsubr
          56.99 -95 callsubr
          364.99998 361 vstem
          1141.99 133.98 rmoveto
          522.01 -550 -247 175 callgsubr
          -117 vlineto
          -10 -57 callsubr
          -51 77 callsubr
          -58 hhcurveto
          -173.02 -62 82.99 201 hvcurveto
          52 vlineto
          210 98 -85 callgsubr
          105 118 46 -55 callsubr
          -108.02 16 vhcurveto
          342 hlineto
          255 -22 -143 175 -372 hhcurveto
          -302 -245 -203 -372 hvcurveto
          -50 vlineto
          -372 216.99 -200.99 345 264.01 186 81.98 68 73 vhcurveto
          endchar
        </CharString>
        <CharString name="G.ss06">
          272 -57 callsubr
          300.97 225.01001 265.99 404.01 301.99 198 callgsubr
          513.01 374 vstem
          1318.99 205 callsubr
          rmoveto
          596.01 -576 -266 202 -192 vlineto
          -21.02 -25 -91 callsubr
          -12 -87 hhcurveto
          -221 211 callgsubr
          177 229.99 hvcurveto
          69.02 vlineto
          252.99 114.02 166 9 callsubr
          35 callgsubr
          75 callsubr
          -57 callgsubr
          -141 15.02 vhcurveto
          359 hlineto
          161 callsubr
          -25.01 66 callsubr
          209 -383 hhcurveto
          -386 -271 -296 -427 hvcurveto
          -57 callgsubr
          vlineto
          -407.99 292.99 -299.98 421 286 -6 callsubr
          20 callsubr
          82.99 73.01 vhcurveto
          endchar
        </CharString>
        <CharString name="H">
          306 0 43 546.98 -84 callsubr
          524.04999 40.96 -24 callgsubr
          485.98999 -11 callsubr
          vstem
          960.98 -11 callgsubr
          -565 -485.99 565 -373 200 callsubr
          589.99 485.99 -589.99 372 -69 callgsubr
          vlineto
          endchar
        </CharString>
        <CharString name="H.smcp">
          98 0 43 380.99 -64 callgsubr
          364.99998 -91 callgsubr
          vstem
          797.98 5 callgsubr
          -450.99 -365 450.99 -27 callgsubr
          360 424 365 -424 -91 callgsubr
          -65 callgsubr
          vlineto
          endchar
        </CharString>
        <CharString name="I">
          30 callgsubr
          hstem
          148 callgsubr
          vstem
          499 hmoveto
          -69 callgsubr
          -371 -77 callgsubr
          vlineto
          endchar
        </CharString>
        <CharString name="I.smcp">
          -576 0 43 hstem
          98 -95 callsubr
          vstem
          456.99 hmoveto
          -65 callgsubr
          -359 -69 callsubr
          vlineto
          endchar
        </CharString>
        <CharString name="Iacute">
          30 callgsubr
          67.01001 -68 callsubr
          148 callgsubr
          vstem
          331.98 1841.99 rmoveto
          32 callgsubr
          278 319 rlineto
          -205.99 -1841.99 rmoveto
          -69 callgsubr
          -371 -77 callgsubr
          vlineto
          endchar
        </CharString>
        <CharString name="Iacute.smcp">
          -576 0 43 1203.98 -68 callsubr
          98 -95 callsubr
          vstem
          297.98 1565.98 rmoveto
          31 callsubr
          278 319 rlineto
          -214 -1565.98 rmoveto
          -65 callgsubr
          -359 -69 callsubr
          vlineto
          endchar
        </CharString>
        <CharString name="Icircumflex">
          30 callgsubr
          89.01001 87 callgsubr
          148 callgsubr
          hintmask 11101000
          756 1559 rmoveto
          hintmask 11011000
          193 callgsubr
          -205 hlineto
          hintmask 11101000
          -333.98 209 callgsubr
          58 callgsubr
          hintmask 11011000
          161.02 217 callsubr
          -257 -1544.99 rmoveto
          -69 callgsubr
          -371 -77 callgsubr
          vlineto
          endchar
        </CharString>
        <CharString name="Icircumflex.smcp">
          -576 0 43 1225.98 57 callsubr
          98 -95 callsubr
          hintmask 11010000
          721.98 1282.99 rmoveto
          hintmask 10110000
          -339.99 282 192 callsubr
          hintmask 11010000
          -333.98 -277.01 58 callgsubr
          hintmask 10110000
          19 callgsubr
          280.98 hlineto
          -264.99 -1268.98 rmoveto
          -65 callgsubr
          -359 -69 callsubr
          vlineto
          endchar
        </CharString>
        <CharString name="Idieresis">
          30 callgsubr
          74.01001 279.98 -278.99 280 hstemhm
          -113 -58 callsubr
          -80 callgsubr
          370.99 -79.01001 313.02 hintmask 11010100
          576 1810.98 rmoveto
          -74 callgsubr
          -72.01 -91 callsubr
          10 callsubr
          -82 callgsubr
          21 callsubr
          -61 -78 callgsubr
          hvcurveto
          hintmask 11010010
          -76 callgsubr
          61 -90 callgsubr
          hvcurveto
          hintmask 11010100
          -7 callsubr
          146 callsubr
          vhcurveto
          hintmask 11100100
          -533.02 -1 rmoveto
          hintmask 11101000
          -81 callsubr
          -72 -91 callsubr
          -51 callgsubr
          -79 188 callsubr
          hintmask 11100100
          -21 callsubr
          79 -46 callgsubr
          -72 callgsubr
          -89 callsubr
          -74 callgsubr
          hvcurveto
          hintmask 11010100
          456.01 -1809.98 rmoveto
          -69 callgsubr
          -371 -77 callgsubr
          vlineto
          endchar
        </CharString>
        <CharString name="Idieresis.smcp">
          -576 0 43 1210.99 16 callgsubr
          -147 -58 callsubr
          207 callgsubr
          -95 callsubr
          -71.01001 -58 callsubr
          hintmask 10101000
          541.98 1535 rmoveto
          -81 callsubr
          43 callsubr
          -81 callgsubr
          hvcurveto
          hintmask 10100100
          -21 callsubr
          79.02 hvcurveto
          hintmask 10101000
          8 callsubr
          vhcurveto
          hintmask 11001000
          62 callsubr
          hintmask 11010000
          -49 callsubr
          hvcurveto
          hintmask 11001000
          84 73 220 callgsubr
          -90 callgsubr
          -73 61 -84 hvcurveto
          hintmask 10101000
          448 -1533.99 rmoveto
          -65 callgsubr
          -359 -69 callsubr
          vlineto
          endchar
        </CharString>
        <CharString name="Igrave">
          30 callgsubr
          67.01001 -68 callsubr
          148 callgsubr
          vstem
          520.99 1523 189 callgsubr
          285 -319 rlineto
          267 -1523 rmoveto
          -69 callgsubr
          -371 -77 callgsubr
          vlineto
          endchar
        </CharString>
        <CharString name="Igrave.smcp">
          -576 0 43 1203.98 -68 callsubr
          98 -95 callsubr
          vstem
          486.99 1246.99 189 callgsubr
          284.98 -319 rlineto
          -38 callsubr
          -1246.99 rmoveto
          -65 callgsubr
          -359 -69 callsubr
          vlineto
          endchar
        </CharString>
        <CharString name="J">
          24 8 callgsubr
          hstem
          34.97 374 269.02 -11 callsubr
          vstem
          677.99 -11 callgsubr
          -989 vlineto
          181 callsubr
          -47 -72 -88 0 callgsubr
          -44 31 139 vhcurveto
          -374.01 hlineto
          -325 212 -146 296 283.01 223.99 194 -18 callsubr
          vhcurveto
          989 vlineto
          endchar
        </CharString>
        <CharString name="J.smcp">
          -132 -67 callsubr
          120 callgsubr
          420.98 hstemhm
          166 callsubr
          -100 callgsubr
          173.99998 -95 callsubr
          hintmask 10010000
          560.99 5 callgsubr
          -727 vlineto
          -122 24 callsubr
          -42.99 -62 vhcurveto
          hintmask 01110000
          -80 callgsubr
          -20 67 callgsubr
          88 hvcurveto
          -360 hlineto
          hintmask 10110000
          -292 175 -128.98 277 236 204.99 163.98 290 vhcurveto
          727 vlineto
          endchar
        </CharString>
        <CharString name="K">
          184 -56 callgsubr
          101.99 373 vstem
          1344 -11 callgsubr
          -462.01 hlineto
          -289 -432.99 -118 -190.02 rlineto
          623 -373 200 callsubr
          -95 callsubr
          vlineto
          139 153 134 callgsubr
          -512 rlineto
          442 hlineto
          -473 808.98 rlineto
          endchar
        </CharString>
        <CharString name="K.alt">
          197 0 43 510.98 361 500.04 -63 callgsubr
          98 373 vstem
          913.98 hmoveto
          440.01 hlineto
          -426 788.99 375.01 177 callsubr
          rlineto
          -451.01 hlineto
          -246 -541 rlineto
          186 callgsubr
          541 -373 200 callsubr
          553.98 168 hlineto
          endchar
        </CharString>
        <CharString name="K.alt2">
          185 -56 callgsubr
          98 373 vstem
          1323.99 hmoveto
          -504 733.98 479.99 722 rlineto
          -461 hlineto
          -367.99 -624.99 rlineto
          624.99 -373 200 callsubr
          605 vlineto
          384.99 -605 rlineto
          endchar
        </CharString>
        <CharString name="K.smcp">
          7 0 43 -67 callgsubr
          vstem
          1165.99 5 callgsubr
          -454 hlineto
          -279 -437.99 rlineto
          437.99 -27 callgsubr
          360 317.99 vlineto
          13 -42 95 94 198.99 -369.99 rlineto
          421.01 hlineto
          -374.01 642.99 rlineto
          endchar
        </CharString>
        <CharString name="L">
          -19 0 -84 callsubr
          1114.02998 40.96 -24 callgsubr
          vstem
          474.99 -84 callsubr
          rmoveto
          1154.99 -42 callgsubr
          235.99 vlineto
          737.02 -84 callsubr
          hlineto
          endchar
        </CharString>
        <CharString name="L.smcp">
          -174 0 -82 callsubr
          130 callsubr
          -82 callsubr
          rmoveto
          875.99 -27 callgsubr
          -9 callsubr
          vlineto
          637.01 -82 callsubr
          hlineto
          endchar
        </CharString>
        <CharString name="M">
          666 -56 callgsubr
          101.99 374 840.98999 374 vstem
          1690.99 -11 callgsubr
          -492.01 hlineto
          -302.98 -966 -303 966 rlineto
          -176 hlineto
          -315 -77 callgsubr
          374 274.98 hlineto
          -37 740 335 -1014.99 rlineto
          244.02 hlineto
          335 1014.99 -36 -740 rlineto
          163 callsubr
          374 vlineto
          endchar
        </CharString>
        <CharString name="M.smcp">
          416 0 43 hstem
          -85 callgsubr
          361 677 361 vstem
          1472 5 callgsubr
          -478 hlineto
          -223 -697 -222 697 rlineto
          -173 hlineto
          -303 -69 callsubr
          361 116.98 hlineto
          -37 662.02 260.02 -779 rlineto
          228.99 hlineto
          261 783.99 -35.99 -667.01 rlineto
          -116.98 361 vlineto
          endchar
        </CharString>
        <CharString name="N">
          305 -56 callgsubr
          101.99 373 485.01 -11 callsubr
          vstem
          1332 hmoveto
          -16 callsubr
        </CharString>
        <CharString name="N.smcp">
          97 0 43 -67 callgsubr
          363.01 -95 callsubr
          vstem
          1154.99 hmoveto
          -16 callgsubr
        </CharString>
        <CharString name="Ntilde">
          305 -88 callgsubr
          107.01001 -28 callsubr
          101.99 373 -141.01001 100 callsubr
          392.01 195 -156.98 -11 callsubr
          hintmask 00000000
          hintmask 11101010
          1117 1844 rmoveto
          -195 88 callgsubr
          hintmask 11010101
          -95 -81.99 21 callgsubr
          -103.01 hhcurveto
          -137 44 callgsubr
          35 callsubr
          23 40 vhcurveto
          hintmask 11101001
          101.01 115 callgsubr
          hintmask 11101010
          138 95 111 callgsubr
          hintmask 11101001
          215 -1844 rmoveto
          -16 callsubr
        </CharString>
        <CharString name="Ntilde.smcp">
          97 0 43 1239.99 -28 callsubr
          -87 callgsubr
          -200.99 100 callsubr
          368.01 -95 callsubr
          176 callgsubr
          168 callsubr
          hintmask 00000000
          hintmask 11010010
          1014.99 1564 rmoveto
          66 callsubr
          88 callgsubr
          hintmask 10101100
          -95 -82 21 callgsubr
          -103 hhcurveto
          -137 36 callgsubr
          30 callsubr
          90 callgsubr
          23 40 vhcurveto
          hintmask 11010100
          101 115 callgsubr
          hintmask 11010010
          138 95 133 callsubr
          hintmask 11010100
          140 -1564 rmoveto
          -16 callgsubr
        </CharString>
        <CharString name="O">
          -36 callgsubr
          hstem
          -25 callgsubr
          vstem
          1350.98 700.99 -100 callsubr
        </CharString>
        <CharString name="O.smcp">
          -90 callsubr
          hstem
          -13 callgsubr
          vstem
          1174 564.98 -107 callsubr
        </CharString>
        <CharString name="O.ss06">
          349 27 callgsubr
          1419.98 706.99 rmoveto
          42 vlineto
          397.99 -273 330.02 -408.99 -413 -267 -330.02 -397.99 vhcurveto
          -42 vlineto
          -399 268.98 162 callgsubr
          413 409 271 328.99 399 vhcurveto
          -372 67 callgsubr
          rmoveto
          -29 callgsubr
          vlineto
          -221 117 callsubr
          -209 -206 -214 -94 209 221 vhcurveto
          67 callgsubr
          vlineto
          221 92 206 214.02 205.99 104 -206 -221 vhcurveto
          endchar
        </CharString>
        <CharString name="OE">
          870 -48 callsubr
          -269.99 -83 callgsubr
          -269.98 83 callsubr
          219 callsubr
          473.01 373 hintmask 01110110
          1940.99 201 callsubr
          rmoveto
          302 -645 vlineto
          157 callgsubr
          hlineto
          hintmask 10101110
          11 102 callgsubr
          -100 69 callgsubr
          -101 hhcurveto
          -379 -258.99 -243 -353.02 hvcurveto
          -303.98 vlineto
          -353.02 261 -242.99 379 vhcurveto
          hintmask 01110110
          101.01 98 10.02 9.99 1 callgsubr
          hvcurveto
          139 hlineto
          778.01 -84 callsubr
          -640 300 541 290 -541 263 hlineto
          hintmask 10101110
          -846 -577.99 rmoveto
          305.99 vlineto
          205 106 99 173 68.01 105 callsubr
          -5 -8 61 vhcurveto
          -891 vlineto
          -7 -61 -64 -5 -63 callsubr
          hhcurveto
          -173 166 callgsubr
          2 callgsubr
          204 hvcurveto
          endchar
        </CharString>
        <CharString name="Oacute">
          -36 callgsubr
          51 318.99 hstemhm
          -25 callgsubr
          hintmask 00000000
          hintmask 11111000
          722.98 1845.99 rmoveto
          31 callsubr
          278 319 rlineto
          255 -1145 rmoveto
          53 vlineto
          hintmask 11011000
          -99 callgsubr
          vhcurveto
          hintmask 11111000
          374 268.98 275 445.99 hvcurveto
          hintmask 11011000
          -102 callsubr
        </CharString>
        <CharString name="Oacute.smcp">
          -90 callsubr
          65.98999 -68 callsubr
          -13 callgsubr
          vstem
          622 1565.98 rmoveto
          119 callgsubr
          -18 callsubr
          hlineto
          278 319 rlineto
          179.02 -1001 -107 callsubr
        </CharString>
        <CharString name="Ocircumflex">
          -36 callgsubr
          73 87 callgsubr
          -25 callgsubr
          hintmask 11101100
          1146.98 79 callsubr
          -334 -277 rlineto
          -19 275 vlineto
          hintmask 11011100
          161.02 111 callsubr
          280.98 hlineto
          204 -848 -100 callsubr
        </CharString>
        <CharString name="Ocircumflex.smcp">
          -90 callsubr
          87.98999 57 callsubr
          -13 callgsubr
          hintmask 11101100
          1046 1282.99 rmoveto
          hintmask 11011100
          162 callsubr
          282 192 callsubr
          hintmask 11101100
          2 callsubr
          131 callgsubr
          hintmask 11011100
          19 callgsubr
          281.01 hlineto
          128 -704 -107 callsubr
        </CharString>
        <CharString name="Odieresis">
          -36 callgsubr
          58.01001 16 callgsubr
          -45 callsubr
          380.98 -164.98 -12 callgsubr
          -58 callsubr
          -153.98 380.98 hintmask 00000000
          hintmask 11011010
          966.98 1815 rmoveto
          -64 callsubr
          -79.01 21 callsubr
          -44 callsubr
          -3 callgsubr
          61 -83.99 hvcurveto
          916.99 -1113.01 rmoveto
          53 vlineto
          hintmask 11001001
          -99 callgsubr
          vhcurveto
          hintmask 11100101
          374 268.98 275 445.99 hvcurveto
          hintmask 11001001
          -102 callsubr
        </CharString>
        <CharString name="Odieresis.smcp">
          -90 callsubr
          73 16 callgsubr
          -7 callgsubr
          362 -225.98999 -12 callgsubr
          313.02 -210.01 361 hintmask 00000000
          hintmask 11011010
          866 1535 rmoveto
          -74 callgsubr
          43 callsubr
          84.01 -76 callsubr
          hvcurveto
          hintmask 11100101
          -533.02 -1 rmoveto
          -49 callsubr
          -75 callgsubr
          hvcurveto
          841.02 -969.01 rmoveto
          34.02 vlineto
          356.99 -241 225 -326 vhcurveto
          hintmask 11011001
          2 callsubr
          -232.02 -225 -356.99 hvcurveto
          34 callgsubr
          vlineto
          -356.99 234 -223.98 334.01 vhcurveto
          hintmask 11100101
          326 239 223.98 356.99 hvcurveto
          -361 35 rmoveto
          -35 vlineto
          -180.98 -78 -116.02 -126 vhcurveto
          hintmask 11011001
          -142 -64 116.02 180.98 hvcurveto
          35 vlineto
          187 62.02 -35 callgsubr
          141.99 vhcurveto
          hintmask 11100101
          129 77 -109.02 -187 hvcurveto
          endchar
        </CharString>
        <CharString name="Ograve">
          -36 callgsubr
          51 318.99 hstemhm
          -25 callgsubr
          hintmask 00000000
          hintmask 11111000
          911.99 1526.99 rmoveto
          -200 -1 callsubr
          728 -826 rmoveto
          53 vlineto
          hintmask 11011000
          -99 callgsubr
          vhcurveto
          hintmask 11111000
          374 268.98 275 445.99 hvcurveto
          hintmask 11011000
          -102 callsubr
        </CharString>
        <CharString name="Ograve.smcp">
          -90 callsubr
          65.98999 -68 callsubr
          -13 callgsubr
          vstem
          810.99 1246.99 130 callgsubr
          652 -682 -107 callsubr
        </CharString>
        <CharString name="Oslash">
          279 -20 304 886.98 305 hstem
          75 380.98 527.01001 380.98 vstem
          1151 1314 rmoveto
          115 204 rlineto
          -216 hlineto
          11 callsubr
          -99 rlineto
          -34 callgsubr
          -82 -93 182 callgsubr
          -100 hhcurveto
          -380.01 -263.98 -276.01 -445.99 hvcurveto
          -53 vlineto
          -235.99 74 -188 127 121 callgsubr
          vhcurveto
          -140 -246.99 rlineto
          216 hlineto
          116 callsubr
          115 callsubr
          rlineto
          -41 86 98 -21.99 107 hhcurveto
          373.99 269 275 445.99 hvcurveto
          53 vlineto
          243 -80 192 -133 35 callgsubr
          vhcurveto
          -695.01 -613.01 rmoveto
          55 vlineto
          269.99 -78 callgsubr
          145 179 67 callgsubr
          40 -9.99 106 callsubr
          35 callsubr
          vhcurveto
          -360 -634.99 rlineto
          -13 56 -7 65 73.99 vvcurveto
          527.01 hmoveto
          -264.99 -93 -152 -169 -52 -44 138 callsubr
          25 -37 vhcurveto
          368 649.01 rlineto
          18 -59 69 callgsubr
          -72 -81 callsubr
          vvcurveto
          endchar
        </CharString>
        <CharString name="Oslash.smcp">
          -90 callsubr
          -165 23 callsubr
          -40.96002 -98 callgsubr
          hstemhm
          -13 callgsubr
          hintmask 10011100
          1176.99 1222.98 rmoveto
          -176 hlineto
          hintmask 11001100
          -91 -119.99 rlineto
          51 -86 -103 27.01 182 callsubr
          hhcurveto
          2 callsubr
          -232.02 -225 -356.99 hvcurveto
          34 callgsubr
          vlineto
          -173 55 202 callsubr
          95.01 -100 vhcurveto
          -155.02 -205 rlineto
          176 hlineto
          88 118 rlineto
          165 callgsubr
          87 105 -27.97 117 hhcurveto
          326 239 223.98 356.99 hvcurveto
          34.02 vlineto
          hintmask 10101100
          174 -57 141.99 103 callgsubr
          101.01 vhcurveto
          -618 -451.01 rmoveto
          35 vlineto
          hintmask 11001100
          187 62.02 -35 callgsubr
          141.99 46 139 callgsubr
          -14.01 -52 callsubr
          -31 callsubr
          vhcurveto
          -310 -409.99 rlineto
          hintmask 10101100
          -7.99 35 -3.02 40 67 callgsubr
          vvcurveto
          410.01 35 rmoveto
          -35 vlineto
          hintmask 10011100
          -180.98 -78 -116.02 -126 -50 -41 14 27 -30.99 vhcurveto
          312 414 rlineto
          hintmask 10101100
          69 callgsubr
          -36 5 -41 -46 vvcurveto
          endchar
        </CharString>
        <CharString name="Otilde">
          -36 callgsubr
          87.01001 -28 callsubr
          -45 callsubr
          380.98 -130.98 100 callsubr
          392.01 168 callsubr
          -10 callsubr
          380.98 hintmask 00000000
          hintmask 11101010
          1094.98 1844 rmoveto
          66 callsubr
          88 callgsubr
          hintmask 11010101
          -95 -82 21 callgsubr
          -103 hhcurveto
          79 callgsubr
          44 callgsubr
          33 23 40 vhcurveto
          hintmask 11101001
          100.99 115 callgsubr
          hintmask 11101010
          138.02 134 callsubr
          111 callgsubr
          hintmask 11101001
          256 -1143.01 -100 callsubr
        </CharString>
        <CharString name="Otilde.smcp">
          -90 callsubr
          102 -28 callsubr
          -7 callgsubr
          362 -192 196 392 195 -180.98999 361 hintmask 00000000
          hintmask 11101010
          994 1564 rmoveto
          -195 88 callgsubr
          hintmask 11010101
          36 callgsubr
          -82 21 callgsubr
          113 callgsubr
          hhcurveto
          45 callsubr
          hintmask 11101001
          101.01 115 callgsubr
          hintmask 11101010
          138 95 133 callsubr
          hintmask 11101001
          180 -999.02 -107 callsubr
        </CharString>
        <CharString name="P">
          209 0 43 428.98 303 379 4 callgsubr
          408 64 callgsubr
          688.99 -11 callgsubr
          -587 200 callsubr
          471.98 214 hlineto
          352.01 220 194 134 callgsubr
          291.98 -220 216 -352.01 hvcurveto
          -681 vmoveto
          -214 379 214 hlineto
          136 58 -97 -111 -99 -58 -72.01 -136 hvcurveto
          endchar
        </CharString>
        <CharString name="P.smcp">
          31 0 43 300.98 77 callgsubr
          240.98 -64 callgsubr
          300.99998 357 vstem
          587 5 callgsubr
          -514 -69 callsubr
          360 343.98 154 hlineto
          308 196 166 225 248 -196 180 callgsubr
          -308 hvcurveto
          -530.99 vmoveto
          -154 240.99 154 hlineto
          98 -73 callgsubr
          -64 203 callgsubr
          -55 -61 callsubr
          -44 -98 hvcurveto
          endchar
        </CharString>
        <CharString name="Q">
          -36 callgsubr
          hstem
          -93 callsubr
          380 528 380 vstem
          1355 700.99 rmoveto
          53 vlineto
          445.99 -271.01 276.01 -374 -378.99 -264 -276.01 -445.99 vhcurveto
          -53 vlineto
          -445.99 265.99 -275 379 166 callsubr
          27.02 1 3.02 1 callsubr
          vhcurveto
          312.01 -256 228.99 -29 callsubr
          -226 83 callgsubr
          154 123 94 204 263 vvcurveto
          -908 hmoveto
          55 vlineto
          269.99 -81 callgsubr
          145 179 169 96.01 -145 -269.99 vhcurveto
          -55 vlineto
          -264.99 -94 -152 -169 -179 -86 152 264.99 vhcurveto
          endchar
        </CharString>
        <CharString name="Q.smcp">
          -90 callsubr
          hstem
          -73 callgsubr
          -95 callsubr
          412.99998 -44 callgsubr
          vstem
          1180 564.98 rmoveto
          34.02 vlineto
          356.99 -241 225 -325 209 callsubr
          -231 -225 -356.99 87 callsubr
          -356.99 233 -223.98 333 17 17 1 0.99 17 vhcurveto
          272 -213 217 187 -181 139.98 rlineto
          128 100 116 callsubr
          161 204 vvcurveto
          -772.02 hmoveto
          35 vlineto
          187 65 -35 callgsubr
          141 129 -23 callgsubr
          -109.02 -187 vhcurveto
          -35 vlineto
          -180.98 118 callgsubr
          -116.02 -129 -142 -65 116.02 180.98 vhcurveto
          endchar
        </CharString>
        <CharString name="Q.ss06">
          348 27 callgsubr
          1432.99 -52 rmoveto
          -231 23 callsubr
          rlineto
          138 132 80 199 235 vvcurveto
          138 callsubr
          vlineto
          434.01 -273 309 -408.99 -413 -267 -309 -434.01 vhcurveto
          163 callgsubr
          vlineto
          -434.01 268.98 -307.98 413 65 callsubr
          -45 callsubr
          156 callsubr
          10 callgsubr
          20 callgsubr
          vhcurveto
          278 -254.99 rlineto
          -771.02 974 rmoveto
          10 callgsubr
          vlineto
          257 92 185 214.02 205.99 104 -185 -257 vhcurveto
          -14.99 vlineto
          -254.02 117 callsubr
          -189.99 -206 -214 -94 189.99 254.02 vhcurveto
          endchar
        </CharString>
        <CharString name="R">
          219 0 43 448.99 303 358.98999 4 callgsubr
          397.98999 373 vstem
          995.98 593.98 rmoveto
          150.02 132 callsubr
          99.99 110 238 vvcurveto
          287 -220 152.99 -337 vhcurveto
          -587 200 callsubr
          491.99 173 hlineto
          245 -491.99 rlineto
          400 15.99 hlineto
          -817.99 1138 rmoveto
          214 hlineto
          117 -93 callsubr
          -65.99 -114.02 -117 -62 -62 -122 hvcurveto
          -214 hlineto
          endchar
        </CharString>
        <CharString name="R.alt">
          192 0 -31 callsubr
          496 -84 callsubr
          324.99998 -52 callgsubr
          hstemhm
          98 373 368.98 -11 callsubr
          -354.99 373 hintmask 11111000
          1211.99 261 rmoveto
          74 vlineto
          171 -62 12 callgsubr
          -200 53 vhcurveto
          hintmask 11110100
          169 -89 callsubr
          111 88 182 vvcurveto
          273 -181 162 -341 vhcurveto
          -610 200 callsubr
          527.99 hlineto
          hintmask 11111000
          179 hlineto
          140 -35 callsubr
          -63 164 callsubr
          hvcurveto
          -70 vlineto
          -39 7 213 callsubr
          -89 callsubr
          -46 vhcurveto
          383.02 -31 callsubr
          hlineto
          -66 47 -13 150 32 vvcurveto
          -740.99 567.99 rmoveto
          325 vlineto
          hintmask 11110100
          208 hlineto
          122 56 -74 -101.01 -94 -70 -56 181 callsubr
          hvcurveto
          endchar
        </CharString>
        <CharString name="R.smcp">
          51 0 43 324.98 -103 callsubr
          217.01 -64 callgsubr
          298.01 -95 callsubr
          vstem
          880.99 470 rmoveto
          122 -89 callsubr
          87 -7 callsubr
          210.99 vvcurveto
          229 -199 115 -289 vhcurveto
          -529 -69 callsubr
          360 367.98 116 hlineto
          192 -367.98 rlineto
          386 76 callsubr
          hlineto
          -694 861 rmoveto
          169 hlineto
          75 54 -31 -72 callgsubr
          -82 -44 -31 -86 hvcurveto
          -168 hlineto
          endchar
        </CharString>
        <CharString name="S">
          163 -20 293 908.98 294.01 hstemhm
          -45 callsubr
          374.98 -330.99 371.02 372.98 373 hintmask 11011000
          605 587 rmoveto
          210.99 -71 34 -45 -51 callgsubr
          vvcurveto
          -60 -46 -58.99 -123.99 vhcurveto
          hintmask 11101000
          -161.02 -82 -73 callgsubr
          165 hvcurveto
          -374.99 hlineto
          -363 315 -143.99 303 327.99 215 144.99 269 251 -182.99 140.99 -305 98.02 vhcurveto
          hintmask 11011000
          -157 51 -100.99 47 -23 callgsubr
          vvcurveto
          64 -46 callsubr
          58 124 123 -45 callsubr
          -65.99 138 callgsubr
          vhcurveto
          372 hlineto
          290 -233 165 -315 -326 -244 -155 -256.98 -273 249 211 callgsubr
          250.02 -84.99 vhcurveto
          endchar
        </CharString>
        <CharString name="S.smcp">
          -2 -15.99 255.98 572.00002 369 121 callsubr
          269 -95 callsubr
          -339.98 333.98 hintmask 11010100
          524.98 448 rmoveto
          59 callgsubr
          vhcurveto
          hintmask 11100100
          -149 -40.99 42 105 hvcurveto
          -360.02 hlineto
          -298 267.02 -104.98 256.98 284.02 186.99 124.98 228 237 -145 98 -315 64 vhcurveto
          hintmask 11011000
          92 callgsubr
          78 callgsubr
          58 -60 -53 vhcurveto
          359 hlineto
          255 -221 -6 callgsubr
          -284 -257 -198.99 -144.02 -215 vhcurveto
          hintmask 11010100
          140 callgsubr
          20 callsubr
          -76 319 113 callsubr
          vhcurveto
          endchar
        </CharString>
        <CharString name="T">
          173 0 43 1110.98 151 callgsubr
          457.99 374 vstem
          1265.99 -11 callgsubr
          -433.99 hlineto
          -797.03 -302 423.02 -1153.99 374.01 201 callsubr
          433.99 hlineto
          endchar
        </CharString>
        <CharString name="T.smcp">
          8 0 43 831.98 32 callsubr
          381.99 361 vstem
          1110 874.99 rmoveto
          290 -367 vlineto
          -716 -290 355 -874.99 361 874.99 hlineto
          endchar
        </CharString>
        <CharString name="Thorn">
          145 0 43 224.98 77 callgsubr
          -100 callgsubr
          -103 callsubr
          207.03998 -63 callgsubr
          110 -100 callgsubr
          398.98999 -40 callgsubr
          657 1207.99 rmoveto
          -187 247.99 -360 -77 callgsubr
          360 267.98 187 hlineto
          370 201.99 195 275 275.99 -201.99 194 -370 hvcurveto
          -650 vmoveto
          -187 360 187 hlineto
          151.99 60 -85.02 -97 -95 -60 -82.99 -151.99 hvcurveto
          endchar
        </CharString>
        <CharString name="Thorn.smcp">
          -69 0 43 165.99 -103 callsubr
          240.99998 -64 callgsubr
          240.01 356.98 vstem
          525.99 1029.98 rmoveto
          -93 135 -27 callgsubr
          360 209 93 hlineto
          308 196 176.99 240 232 -196 172 -308 hvcurveto
          -530.99 vmoveto
          -93 240.99 93 hlineto
          98 49 -53 -63 -69 -49 11 callsubr
          -98 hvcurveto
          endchar
        </CharString>
        <CharString name="U">
          -42 callsubr
          hstem
          62 callgsubr
          vstem
          1260.99 1455.98 -103 callgsubr
        </CharString>
        <CharString name="U.smcp">
          54 -67 callsubr
          hstem
          79.99 131 callsubr
          -40 callgsubr
          1100.98 1164.98 -101 callgsubr
        </CharString>
        <CharString name="Uacute">
          -42 callsubr
          71 -68 callsubr
          62 callgsubr
          vstem
          694.99 1845.99 rmoveto
          31 callsubr
          278 319 rlineto
          193 -390 -103 callgsubr
        </CharString>
        <CharString name="Uacute.smcp">
          13 callgsubr
          602.99 1565.98 rmoveto
          32 callgsubr
          278 319 rlineto
          76 callgsubr
          -401 -101 callgsubr
        </CharString>
        <CharString name="Ucircumflex">
          -42 callsubr
          93 87 callgsubr
          62 callgsubr
          hintmask 11101100
          1118.99 79 callsubr
          209 callsubr
          -277 rlineto
          -19 275.01 vlineto
          hintmask 11011100
          160.99 217 callsubr
          142 -93 -103 callgsubr
        </CharString>
        <CharString name="Ucircumflex.smcp">
          54 -67 callsubr
          995.98 19 -19 296.02 195 callgsubr
          300.99998 -100 callgsubr
          hintmask 11011000
          1026.99 1282.99 rmoveto
          hintmask 10111000
          162 callsubr
          282 rlineto
          178 callsubr
          hlineto
          hintmask 11011000
          209 callsubr
          131 callgsubr
          hintmask 10111000
          19 callgsubr
          281.01 hlineto
          73.99 -104 -101 callgsubr
        </CharString>
        <CharString name="Udieresis">
          -42 callsubr
          78.01001 16 callgsubr
          100.99 375 -226 -58 callsubr
          220.01 -58 callsubr
          -207.99 373 hintmask 11011001
          938.99 1815 rmoveto
          hintmask 11011010
          -81 callsubr
          -72 -2 callsubr
          188 callsubr
          hintmask 11011001
          84.01 -71 callgsubr
          -84.01 hvcurveto
          hintmask 11101001
          62 callsubr
          197 callsubr
          -79 -51 callgsubr
          54 callsubr
          hintmask 11100101
          -81 callgsubr
          73.02 -89 callsubr
          -46 callgsubr
          hvcurveto
          hintmask 11101001
          79 139 callsubr
          37 callsubr
          vhcurveto
          hintmask 11011001
          855 -358.02 -103 callgsubr
        </CharString>
        <CharString name="Udieresis.smcp">
          54 -67 callsubr
          980.99 280 -279 280 195 callgsubr
          -282.00002 17 callsubr
          -263.00002 -100 callgsubr
          hintmask 10110010
          846.99 1535 rmoveto
          hintmask 10110100
          -84.01 -53 callsubr
          84.01 hvcurveto
          hintmask 10110010
          -81 callgsubr
          73.02 220 callgsubr
          -90 callgsubr
          139 callsubr
          37 callsubr
          hvcurveto
          hintmask 11010010
          -533 -1 rmoveto
          -84 -72.01 -1 callgsubr
          95 callgsubr
          hintmask 11001010
          -76 callgsubr
          220 callgsubr
          hvcurveto
          hintmask 11010010
          -86 callsubr
          vhcurveto
          hintmask 10110010
          786.99 -369.01 -101 callgsubr
        </CharString>
        <CharString name="Ugrave">
          -42 callsubr
          71 -68 callsubr
          62 callgsubr
          vstem
          884 1526.99 rmoveto
          -200 -1 callsubr
          666.01 -71 -103 callgsubr
        </CharString>
        <CharString name="Ugrave.smcp">
          13 callgsubr
          791.98 1246.99 rmoveto
          66 callgsubr
          -1 callsubr
          598 -82 -101 callgsubr
        </CharString>
        <CharString name="V">
          230 -56 callgsubr
          -8 1376.99 vstem
          950.99 -11 callgsubr
          -272 -1025.99 -272 1025.99 rlineto
          -415 hlineto
          479 52 callgsubr
          145.99 hlineto
          269 hlineto
          483 64 callsubr
          endchar
        </CharString>
        <CharString name="V.smcp">
          50 0 43 -43 331.98 hstemhm
          -17 1212.98 hintmask 10100000
          821.99 5 callgsubr
          hintmask 01100000
          -234.99 -833 -231.02 833 rlineto
          -372.98 hlineto
          399.99 52 callsubr
          -19 callsubr
          hlineto
          256 hlineto
          402 65 callgsubr
          endchar
        </CharString>
        <CharString name="W">
          645 -56 callgsubr
          15.99 1734 vstem
          1380.99 -11 callgsubr
          99 callgsubr
          -892.99 -187 892.99 rlineto
          -142 hlineto
          -176 hlineto
          -181.99 -890 -154 890 rlineto
          -370 hlineto
          303 52 callgsubr
          193.99 hlineto
          197 hlineto
          171 790 176 -790 rlineto
          159 hlineto
          232 hlineto
          302 64 callsubr
          endchar
        </CharString>
        <CharString name="W.smcp">
          388 0 43 hstem
          17.98 1465.99 vstem
          1143.99 5 callgsubr
          167 callgsubr
          -639 154 callsubr
          639 rlineto
          -154 hlineto
          -160.99 hlineto
          121 callgsubr
          -635.99 -105.99 635.99 rlineto
          -342.02 hlineto
          251 52 callsubr
          204 hlineto
          82 -45 callgsubr
          -1 68 callgsubr
          rlineto
          83 hlineto
          112 543.99 205 callgsubr
          -543.99 rlineto
          82 hlineto
          207 callsubr
          159 callsubr
          85 3.99 rlineto
          201.99 hlineto
          249 65 callgsubr
          endchar
        </CharString>
        <CharString name="X">
          181 -56 callgsubr
          159 callsubr
          1317.99 vstem
          654.99 990.99 rmoveto
          -223 465 rlineto
          -425 hlineto
          399.02 -722 -409.99 -733.98 rlineto
          428.97 hlineto
          230 473.99 229 -473.99 rlineto
          430 hlineto
          -411.02 733.98 399.02 722 rlineto
          -425 hlineto
          endchar
        </CharString>
        <CharString name="X.smcp">
          2 0 43 hstem
          -23 1167.99 vstem
          542.99 829.99 rmoveto
          -149 334.99 rlineto
          -406.99 hlineto
          332 -577.99 -341.99 -587 rlineto
          206 callsubr
          hlineto
          160.99 342 173.02 -342 rlineto
          424 hlineto
          -371.02 587 331.02 577.99 rlineto
          -409 hlineto
          endchar
        </CharString>
        <CharString name="Y">
          165 -56 callgsubr
          457.99 161 callgsubr
          vstem
          647.99 849.98 -5 callsubr
        </CharString>
        <CharString name="Y.smcp">
          -2 0 43 hstem
          161 callgsubr
          361 vstem
          1140.98 5 callgsubr
          -384 hlineto
          -193.99 -437 -192 437 rlineto
          -384 hlineto
          186 callsubr
          -745 rlineto
          -419.98 361 408.99 vlineto
          endchar
        </CharString>
        <CharString name="Yacute">
          165 -88 callgsubr
          71 -68 callsubr
          457.99 161 callgsubr
          vstem
          177 callsubr
          1845.99 rmoveto
          32 callgsubr
          278 319 rlineto
          -392 -996 -5 callsubr
        </CharString>
        <CharString name="Yacute.smcp">
          -2 0 43 1203.98 -68 callsubr
          161 callgsubr
          361 vstem
          936.98 1565.98 rmoveto
          -372.99 hlineto
          119 callgsubr
          -18 callsubr
          hlineto
          482 -82 rmoveto
          -384 hlineto
          -193.99 -437 -192 437 rlineto
          -384 hlineto
          186 callsubr
          -745 rlineto
          -419.98 361 408.99 vlineto
          endchar
        </CharString>
        <CharString name="Z">
          123 128 callgsubr
          56.99 1152 vstem
          1209 -84 callsubr
          rmoveto
          -665.01 hlineto
          662 966 rlineto
          175 callgsubr
          -117 vlineto
          -1031.99 -302 676 hlineto
          -669 -959 rlineto
          66 callsubr
          79.99 vlineto
          1065 hlineto
          endchar
        </CharString>
        <CharString name="Z.smcp">
          -47 0 -82 callsubr
          585.98999 32 callsubr
          38.99 1019 vstem
          1058 5 callgsubr
          167 callgsubr
          hlineto
          -912 -290 543.99 hlineto
          -443.99 -586 rlineto
          -19 -52 callsubr
          hlineto
          -71 -93 rlineto
          -169.98 71 vlineto
          935 -82 callsubr
          -522 hlineto
          525 710 rlineto
          endchar
        </CharString>
        <CharString name="a">
          -93 callgsubr
          -83 callsubr
          220.01999 -100 callgsubr
          hintmask 01110110
          1000 284 -104 callsubr
          hintmask 10111010
          -97 callsubr
          hintmask 01110110
          -92 callgsubr
          -59 callgsubr
          hintmask 10111010
          -101 callsubr
        </CharString>
        <CharString name="aacute">
          -93 callgsubr
          115.01 -22 callsubr
          -83 callsubr
          220.01999 -100 callgsubr
          hintmask 01111011
          919.98 1536 rmoveto
          -373 hlineto
          -197.98 16 callsubr
          292.99 hlineto
          -91 callgsubr
          -932.99 -104 callsubr
          hintmask 10111101
          -97 callsubr
          hintmask 01111011
          -92 callgsubr
          -59 callgsubr
          hintmask 10111101
          -101 callsubr
        </CharString>
        <CharString name="acircumflex">
          -93 callgsubr
          137.02 18.98 -18.98 295.99 -83 callsubr
          220.01999 -100 callgsubr
          hintmask 0000000000000000
          hintmask 0111010010000000
          526.99 72 callsubr
          -205 hlineto
          hintmask 0111100110000000
          2 callsubr
          61 callsubr
          275 vlineto
          634 -955 -104 callsubr
          hintmask 1011101010000000
          -97 callsubr
          hintmask 0111100010000000
          -92 callgsubr
          hintmask 0111100110000000
          -59 callgsubr
          hintmask 1011101010000000
          -101 callsubr
        </CharString>
        <CharString name="acute">
          -433 60 callsubr
          78 callgsubr
          572 vstem
          155 callgsubr
          1536 rmoveto
          -198 16 callsubr
          293 hlineto
          279 153 callsubr
          endchar
        </CharString>
        <CharString name="acutecomb">
          -1130 60 callsubr
          -694 571 vstem
          -496 71 callgsubr
          endchar
        </CharString>
        <CharString name="adieresis">
          -93 callgsubr
          122.01 280 -278.98999 280 -83 callsubr
          -317.99 -12 callgsubr
          313.02 -308 -100 callgsubr
          hintmask 0000000000000000
          hintmask 0111010001000000
          791 1224.99 rmoveto
          -48 callgsubr
          -84 -72.01 -2 callsubr
          95 callgsubr
          hintmask 0111100010100000
          200 callgsubr
          -28 callgsubr
          61 -90 callgsubr
          8 callsubr
          -81 callsubr
          -72 -20 callsubr
          -82 callgsubr
          72 -61 152 callgsubr
          742.01 -939.99 rmoveto
          425 vlineto
          262 -197.02 12 callgsubr
          -259.99 vhcurveto
          hintmask 0111010100100000
          -292.99 -188 -147 -216 hvcurveto
          -79 callgsubr
          hlineto
          77 36 28 68 85.01 31.01 -51 -82 vhcurveto
          -72 callsubr
          -93.03 vlineto
          hintmask 1011011000100000
          -97 callsubr
          hintmask 0111010000100000
          -92 callgsubr
          hintmask 0111100010100000
          -59 callgsubr
          hintmask 1011011000100000
          -101 callsubr
        </CharString>
        <CharString name="ae">
          600 -20 104 callsubr
          -253.99 -103 callsubr
          148 229.99 -207.99 220.99 151.01 83 callsubr
          58.98 -91 callgsubr
          296.00002 351 275.98999 350 hintmask 10101111
          1689.99 611.98 rmoveto
          161 callsubr
          -180 175 callgsubr
          -281.01 vhcurveto
          -131.99 1 -105 -31.01 -80 -53.99 rrcurveto
          56 -51 callgsubr
          -18 callgsubr
          28 -128 hhcurveto
          -305.01 -193 -146 -203 hvcurveto
          358.02 -19 rlineto
          -17 callgsubr
          46 33 89 79 42 -43 -74 vhcurveto
          hintmask 10011111
          -34 -124.01 vlineto
          -348 -182 -120 -212 -212 153 79 callgsubr
          281 172 120.01 59 69 -30 callgsubr
          hvcurveto
          -80 89 127 -48 162 hhcurveto
          162 166 49 -30 callgsubr
          89 hvcurveto
          hintmask 01101111
          -74 callgsubr
          225 rlineto
          34 callsubr
          -84.99 -70 -19 121 callgsubr
          hhcurveto
          -138 -57 callgsubr
          59 89 -18 hvcurveto
          625 hlineto
          -350 229.99 rmoveto
          -275.99 hlineto
          100 12 41 64 204 callgsubr
          hhcurveto
          68.02 -33 callsubr
          -29 callgsubr
          -96.02 hvcurveto
          hintmask 10011111
          -923 -346.99 rmoveto
          59 60 -33 callgsubr
          114 vhcurveto
          119.99 hlineto
          1 -10 0 140 callsubr
          1 77 callsubr
          rrcurveto
          -129 vlineto
          -28 -40 -59 -21.02 -54 hhcurveto
          -96.99 -46 31.01 60 hvcurveto
          endchar
        </CharString>
        <CharString name="agrave">
          -93 callgsubr
          115.01 -22 callsubr
          -83 callsubr
          220.01999 -100 callgsubr
          hintmask 01111011
          735.99 56 callgsubr
          553 -932.99 -104 callsubr
          hintmask 10111101
          -97 callsubr
          hintmask 01111011
          -92 callgsubr
          -59 callgsubr
          hintmask 10111101
          -101 callsubr
        </CharString>
        <CharString name="alpha">
          21 -57 callsubr
          -71 callsubr
          -286.98999 -103 callsubr
          542 83 callsubr
          33 callgsubr
          -100 callgsubr
          271.99998 -44 callgsubr
          hintmask 00000000
          hintmask 10111000
          1128 268.98 rmoveto
          -1.99 -3 -45 callgsubr
          0 -8.01 hhcurveto
          -48 24 callsubr
          35 1 callgsubr
          hvcurveto
          691.02 -315 vlineto
          -24 -124 rlineto
          89 -54 -72 callgsubr
          33 callgsubr
          -102.01 hhcurveto
          -275.99 -147 -232 -325 112 callgsubr
          hintmask 01111000
          -319 147 -224.99 274 205 callgsubr
          21 callgsubr
          -93 callsubr
          104.02 -33 callgsubr
          vhcurveto
          119 callsubr
          59 101 -56.97 139 hhcurveto
          47 33 67 callsubr
          181 callgsubr
          67 callgsubr
          hvcurveto
          -587 274.98 rmoveto
          210 callsubr
          -33.02 103 151 hvcurveto
          -66 callgsubr
          150 39 117 -6 callgsubr
          33 callgsubr
          38 -18 -36 1 callsubr
          vhcurveto
          -444.99 vlineto
          -29 -38 callgsubr
          -40 -14.01 -55 hhcurveto
          endchar
        </CharString>
        <CharString name="alpha.alt">
          46 60 callgsubr
          43 768.99 83 callsubr
          33 callgsubr
          -100 callgsubr
          hintmask 01110000
          1114.99 hmoveto
          -115 540 9 callgsubr
          542 rlineto
          -305.99 hlineto
          -19 -132 rlineto
          93 -64 -89 59 -126 hhcurveto
          -293.01 -156 -232 -325 112 callgsubr
          hintmask 10110000
          -319 156 -225.97 291 132 91 57.98 91.02 64 vhcurveto
          hintmask 01110000
          19.99 -128 rlineto
          hintmask 10110000
          -243 268.98 rmoveto
          210 callsubr
          -33.02 104 151 hvcurveto
          -66 callgsubr
          150 39 117 -6 callgsubr
          123 42 -114 -134 140 callsubr
          vhcurveto
          -94 vlineto
          -105 12 106 callgsubr
          103 callgsubr
          121 callgsubr
          hhcurveto
          endchar
        </CharString>
        <CharString name="ampersand">
          267 60 callgsubr
          43 -43 104 callsubr
          932.98 190 callsubr
          -73 callgsubr
          -100 callgsubr
          -228.00002 305 214 283.99 -11.99 298 hintmask 00000000
          hintmask 01011001
          1356.98 hmoveto
          hintmask 00111001
          140 callgsubr
          104 callsubr
          rlineto
          100 132 -34 callgsubr
          171 187 vvcurveto
          -298 hlineto
          -91.02 -22 -81 -36 -69 vhcurveto
          178 callsubr
          232 rlineto
          hintmask 01010110
          82 58 rlineto
          109 76 -81 callgsubr
          116 131 vvcurveto
          168 callsubr
          -151.98 166 -233 -254 -164 -174 -229 166 callgsubr
          -17 callgsubr
          -97 76 -112 vhcurveto
          -10.02 -6 rlineto
          hintmask 10011010
          216 callgsubr
          -103 -100 -94 -164 vvcurveto
          -240.99 182 -169.98 295 150 106 29.98 63 113.01 vhcurveto
          hintmask 01010110
          64 -80 callgsubr
          rlineto
          -473 1076.98 rmoveto
          61 37 -73 callgsubr
          75 65 -34 callgsubr
          -53.99 -49 -28 -45 callgsubr
          -47 -82 -52 vhcurveto
          -59 -22 callgsubr
          rlineto
          -43 56 -26.99 -35 callsubr
          52 vvcurveto
          hintmask 10011010
          66 -808 rmoveto
          -71 -72 58 93 64 16 35 27.01 36 hvcurveto
          6 4 234.99 -262 rlineto
          -17.99 -45 -48 -10.02 -47.99 hhcurveto
          endchar
        </CharString>
        <CharString name="ampersand.smcp">
          279 -23 285.98 -262.98 133 callgsubr
          -184.99 262.98 -262.98 535.98 382.01001 263 hstemhm
          75 361 -260.02 291 194.01001 89 callgsubr
          -22.99 298 hintmask 0000000000000000
          hintmask 0001101010000000
          1303 hmoveto
          hintmask 0100101010000000
          -195 185 rlineto
          hintmask 0001101010000000
          74 -90 callgsubr
          50 137 callsubr
          163.99 vvcurveto
          -298 hlineto
          68 callsubr
          -15 -48 -29 -41 vhcurveto
          -168.02 161 rlineto
          hintmask 0001101100000000
          36 21.01 rlineto
          -6 callgsubr
          69 78 callgsubr
          93 115 vvcurveto
          214 -156 116.02 -245 -250 -130 -158 -145 119 callsubr
          44.02 118 callgsubr
          80 185 callgsubr
          vhcurveto
          hintmask 1000110100000000
          -138 -82 -87 -80 154 callsubr
          vvcurveto
          -195 175 callgsubr
          -135.98 301 103.02 113.99 16 41 104 vhcurveto
          hintmask 0001101100000000
          35 -34 rlineto
          -355 918 rmoveto
          60 35 -36 -25 -34 -7 -17 -97 -57 hvcurveto
          -25 -15.01 rlineto
          -40 40 -25.01 32 31 vvcurveto
          47 35 callsubr
          34 -46 callsubr
          vhcurveto
          hintmask 0010110100000000
          -6 -655.02 rmoveto
          -72 callgsubr
          -51 27.02 52 24 138 callsubr
          24 callgsubr
          40 25 hvcurveto
          154 -148.99 rlineto
          -3 -52 callsubr
          -28 -1 -29 hhcurveto
          endchar
        </CharString>
        <CharString name="aring">
          -93 callgsubr
          119.02 -30 callsubr
          202.99998 99 -83 callsubr
          -115.00002 124 203.01001 124 -115.99 -100 callgsubr
          hintmask 0111110010100000
          529.98 1221 rmoveto
          hintmask 0111110011000000
          132.02 94 1 callgsubr
          137 callsubr
          108 -94 93 164 callsubr
          154 callsubr
          -94 -93 -108 hvcurveto
          hintmask 0111110010100000
          166 callgsubr
          94 102 callgsubr
          12 callgsubr
          vhcurveto
          hintmask 0111110011000000
          298.98 vmoveto
          64 38 106 callgsubr
          -57 -57 -38 -44 -64 -64 34 callsubr
          43 58 57 -34 callgsubr
          212 callsubr
          64 hvcurveto
          hintmask 0111110100100000
          470.02 -1235.99 -104 callsubr
          hintmask 1011111000100000
          -97 callsubr
          hintmask 0111110010100000
          -92 callgsubr
          hintmask 0111110100100000
          -59 callgsubr
          hintmask 1011111000100000
          -101 callsubr
        </CharString>
        <CharString name="asciicircum">
          -204 1415.01999 -63 callgsubr
          -31 callsubr
          865.99 vstem
          897.99 728.99 rmoveto
          -298.99 727 rlineto
          -69.02 hlineto
          -198.99 hlineto
          -299.01 -727 rlineto
          265 hlineto
          168.02 448 168 -448 rlineto
          endchar
        </CharString>
        <CharString name="asciitilde">
          151 356.98 288.01 -86.01 286 hstemhm
          1 callgsubr
          248 597 252.99 hintmask 00000000
          hintmask 10110000
          1186.98 804.99 rmoveto
          -252.99 1 rlineto
          -88 -44 -72 callgsubr
          -64 204 callsubr
          -29 callgsubr
          1 callsubr
          48 -47 vhcurveto
          hintmask 01110000
          87 -74 callgsubr
          -81 callsubr
          38.99 -100 hhcurveto
          -198 -135 -152.99 -290.02 hvcurveto
          248 -6 rlineto
          87 47 76 64 -73 callgsubr
          41 -23.99 -50 50 vhcurveto
          hintmask 10110000
          -91 -24 callsubr
          72 -37 101.99 hhcurveto
          197 115 callsubr
          161 287 hvcurveto
          endchar
        </CharString>
        <CharString name="asterisk">
          -167 1186.03 -98 callgsubr
          -30.96 -98 callgsubr
          178.02998 -98 callgsubr
          hstemhm
          402.49 193.99 hintmask 01110000
          356.99 948.98 rmoveto
          -232 -272 178 -118.99 159 callgsubr
          100 callgsubr
          185 -297 158 callsubr
          124 -222.99 264.01 rlineto
          hintmask 10110000
          335 91 -68 200 -313.02 -134 29 362.99 rlineto
          -221.98 hlineto
          hintmask 01110000
          166 callsubr
          -356 -322 137 -63 callsubr
          -198 rlineto
          endchar
        </CharString>
        <CharString name="at">
          705 -452.99 117 callgsubr
          224.01 189.97 -184.97 201.99 595.98 117 callgsubr
          231.02 180 callgsubr
          hstemhm
          -89 callsubr
          229 208 262 787 210.98 hintmask 11011111
          963.99 1402.98 rmoveto
          -536 -343 -403.99 -547 -24 hvcurveto
          -607.99 -22 307 -297 545 hhcurveto
          124 156 29 60 93 hvcurveto
          -22 callgsubr
          180 rlineto
          -33.02 -84 -132 -28 -115 hhcurveto
          -402 -225 223 473.99 208 callgsubr
          hvcurveto
          431 0 callsubr
          246 338 403.01 hhcurveto
          419.98 188 -276.01 -392.99 -57 callsubr
          hvcurveto
          -219.02 -6 -74 callgsubr
          -164 -18 callgsubr
          hhcurveto
          -52 -54 25 87 13 hvcurveto
          51 598 rlineto
          20 callgsubr
          -74 callgsubr
          -75 53.99 -159.99 hhcurveto
          11 callgsubr
          -190 -216 -331.99 -41 hvcurveto
          hintmask 10111111
          -278.02 -27 132 -179.97 193 hhcurveto
          204 callgsubr
          87 41.98 83 64 hvcurveto
          hintmask 11011111
          -83 48 112 callsubr
          -46.98 106 hhcurveto
          314 132 290.98 295 10 hvcurveto
          493.02 208 callgsubr
          -286 344.99 -530 hhcurveto
          hintmask 10111111
          -86 -1216.99 rmoveto
          -91.02 -40 87.99 168.02 13 hvcurveto
          219 25 -89 callsubr
          121 161 hhcurveto
          182 callgsubr
          18 -2 -4 17 hvcurveto
          -37 -436 rlineto
          -136 -29 callgsubr
          -65 -17.99 -22 callgsubr
          hhcurveto
          endchar
        </CharString>
        <CharString name="atilde">
          -93 callgsubr
          151.01 207 -207 286 -204 205 -83 callsubr
          -285.00002 196 309.02 -100 callgsubr
          -277.01001 195 hintmask 0000000000000000
          hintmask 0111001001100000
          403.99 1334.99 rmoveto
          hintmask 0111100000100000
          101.01 115 callgsubr
          hintmask 0111010000010000
          138 95.01 133 callsubr
          -195.02 10 rlineto
          hintmask 0111100000010000
          91 callgsubr
          hintmask 0111001001100000
          45 callsubr
          hintmask 0111100010100000
          596.01 -1050.99 -104 callsubr
          hintmask 1011100100100000
          -97 callsubr
          hintmask 0111100000100000
          -92 callgsubr
          hintmask 0111100010100000
          -59 callgsubr
          hintmask 1011100100100000
          -101 callsubr
        </CharString>
        <CharString name="b">
          23 81 callgsubr
          295.98999 -44 callgsubr
          39 callgsubr
          320 vlineto
          hintmask 10111000
          10 callgsubr
          111.98 rlineto
          -82 61 82.99 -72 callsubr
          -6 callgsubr
          hhcurveto
          291 129 222 331 hvcurveto
          0 callsubr
          vlineto
          313 -129 235 -293 vhcurveto
          63 -548 rmoveto
          -57 callsubr
          vlineto
          -164 163 callgsubr
          117 callsubr
          -138.02 -72 callgsubr
          -46 22 46 -52 callsubr
          vhcurveto
          409 vlineto
          46 155 callsubr
          45 24 72 hhcurveto
          132 0 callsubr
          211 callgsubr
          -141 hvcurveto
          endchar
        </CharString>
        <CharString name="b.ss06">
          52 81 callgsubr
          316 -95 callsubr
          39 callgsubr
          309.98 vlineto
          hintmask 10111000
          182 callgsubr
          23 callgsubr
          rlineto
          -84.99 -45 callsubr
          -78 callgsubr
          -54 117 hhcurveto
          291 149 234 315 hvcurveto
          21 vlineto
          328.99 -149 223 -293 vhcurveto
          83 -572.99 rmoveto
          -148 -33 181 callsubr
          -138.02 -63 callsubr
          -48 0 callsubr
          39 -30 vhcurveto
          428.02 vlineto
          40 30 47 19 66 hhcurveto
          134.99 38 -111 -153 hvcurveto
          endchar
        </CharString>
        <CharString name="backslash">
          -252 1415.01999 -63 callgsubr
          -30 985.98 vstem
          -30 -11 callgsubr
          606.98 -1580.99 rlineto
          379 hlineto
          -607.99 1580.99 rlineto
          endchar
        </CharString>
        <CharString name="bar">
          -604 1415.01999 -63 callgsubr
          171.99 188 vstem
          360 -270 rmoveto
          1725.99 -188 -1725.99 vlineto
          endchar
        </CharString>
        <CharString name="braceleft">
          171 callsubr
          192 305.99 vstem
          497.99 179 callgsubr
          rmoveto
          203 vlineto
          132.02 -57 115 -131 63 vhcurveto
          131 63 57 103 callsubr
          132 vvcurveto
          203 vlineto
          129 25 105 -30 callsubr
          -19 callgsubr
          vhcurveto
          -63 callsubr
          193 rlineto
          -275 -77 -84.99 213 callsubr
          -210 vvcurveto
          -203 vlineto
          185 callsubr
          -46.02 -72 callgsubr
          -109 vhcurveto
          -71 vlineto
          213 callsubr
          vlineto
          109 46.02 -59 callsubr
          -112 hvcurveto
          -203 vlineto
          -209.98 78 callgsubr
          -179 275 -77 vhcurveto
          -93 callsubr
          194 rlineto
          -95.99 -19 callgsubr
          -25 105 128.98 vvcurveto
          endchar
        </CharString>
        <CharString name="braceright">
          171 callsubr
          164 callgsubr
          306.01 vstem
          471 928.99 rmoveto
          203 vlineto
          210 185 callgsubr
          158 callsubr
          -275 77 vhcurveto
          -63 callsubr
          -193 rlineto
          -30 callsubr
          -22 callgsubr
          25 -105 -129 vvcurveto
          -203 vlineto
          -132 56 182 callsubr
          128.99 -64 vhcurveto
          -128.99 -64 -56 181 callsubr
          164 callsubr
          vvcurveto
          -203 vlineto
          -128.98 -25 -105 -95.99 -22 callgsubr
          vhcurveto
          -93 callsubr
          -194 rlineto
          275 77 85.01 179 209.98 vvcurveto
          203 vlineto
          112 46 73.01 109 vhcurveto
          70 vlineto
          179 vlineto
          -109 -46 -85 callgsubr
          113.01 hvcurveto
          endchar
        </CharString>
        <CharString name="bracketleft">
          84 callsubr
          102.99 -40 callgsubr
          570 1446.99 rmoveto
          272 -467 -2078.98 467 269.99 -107 1537 vlineto
          endchar
        </CharString>
        <CharString name="bracketright">
          84 callsubr
          122.98 -44 callgsubr
          vstem
          10 callgsubr
          1718.99 rmoveto
          -272 9 callgsubr
          -1537 -18 callgsubr
          -269.99 467 2078.98 vlineto
          endchar
        </CharString>
        <CharString name="brokenbar">
          -602 1415.01999 -63 callgsubr
          115 306.99 vstem
          421.99 698 rmoveto
          757.99 -307 -757.99 vlineto
          -968 vmoveto
          307 794.99 -307 hlineto
          endchar
        </CharString>
        <CharString name="bullet">
          -363 473.98 538 hstem
          133.98 522.01 vstem
          186 callsubr
          1012 rmoveto
          -156 -103.01 -105 -148 hvcurveto
          -36 vlineto
          -146.98 103.01 -102.02 101 callsubr
          161 99 102.02 146.98 vhcurveto
          36 vlineto
          148 -99 105 -164 vhcurveto
          endchar
        </CharString>
        <CharString name="c">
          -67 80 callsubr
          275.99 336.02 vstem
          5 callsubr
          -30 callsubr
          42 -68 -88 -3 vhcurveto
          40 callsubr
          -321 171 -230.99 339 265 198 159 260 -45 callgsubr
          vhcurveto
          endchar
        </CharString>
        <CharString name="c.ss06">
          -20 -14 callsubr
          -35 callsubr
          -95 callsubr
          314.99998 101 callgsubr
          vstem
          723.99 398.99 rmoveto
          -85 -1 11 callsubr
          -44 -89 hhcurveto
          -128 -41 109 153 hvcurveto
          17 vlineto
          149 41 114 35 callgsubr
          211 callsubr
          51 -68 -88 1 vhcurveto
          336 hlineto
          291 -6 -197 -19 callsubr
          -272 hhcurveto
          -337 -198 -232 -321 hvcurveto
          -17 vlineto
          -321 198 -230.99 339 264.99 202 159 260 6 vhcurveto
          endchar
        </CharString>
        <CharString name="ccedilla">
          -67 217 callgsubr
          264 43 -36 43 769.99 83 callsubr
          -60 callsubr
          132.99 313.99 -170.99 336.02 hintmask 10111100
          5 callsubr
          vhcurveto
          hintmask 11011010
          -30 callsubr
          42 -68 -88 -3 hvcurveto
          40 callsubr
          -279 129 -211 257 -72 callsubr
          vhcurveto
          hintmask 10111100
          -38 callgsubr
          -10 callsubr
          rlineto
          93 -5 -19 callgsubr
          -16.02 -46 vvcurveto
          -51 -55 callsubr
          -57 callsubr
          -46.02 vhcurveto
          7 127 callsubr
          115 -77 45 -72 callgsubr
          13 hvcurveto
          7 47 185 -35 callsubr
          126 143.02 -45 callgsubr
          23 callsubr
          rlinecurve
          endchar
        </CharString>
        <CharString name="cedilla">
          -551 -483 117 callgsubr
          224.01999 63.97 hstem
          136 callgsubr
          313.99 vstem
          385.99 12.98 rmoveto
          -274 hlineto
          -30.99 -148.99 rlineto
          93 -5 -19 callgsubr
          -16 -46 vvcurveto
          -51 -55 callsubr
          -21.02 -46.02 vhcurveto
          7 -208 rlineto
          252 133 103 156 103 callsubr
          -77 212 callsubr
          -72 callgsubr
          13 hvcurveto
          endchar
        </CharString>
        <CharString name="cent">
          93 -245 201 callgsubr
          -283.99 43 -40 43 779.99 505.99 hstemhm
          98 -95 callsubr
          59 -29 callsubr
          17.01 101 callgsubr
          hintmask 00000000
          hintmask 10010100
          733 398.99 rmoveto
          hintmask 10011110
          -85 68 callgsubr
          -47 -44 -89 hhcurveto
          -128.99 -14 109 153 hvcurveto
          17 vlineto
          149 10 callgsubr
          114 35 callgsubr
          97 42 -68 -88 -45 callgsubr
          vhcurveto
          336 hlineto
          hintmask 00110100
          68 callgsubr
          250 216 callgsubr
          150 -213 37 rrcurveto
          225 66 callgsubr
          -222 vlineto
          hintmask 00111100
          157 callgsubr
          -22 callgsubr
          -140.99 -218 -291 vvcurveto
          -17 vlineto
          hintmask 01010100
          -290 140.99 -217 277.01 -38.99 vhcurveto
          hintmask 10010100
          -231 -29 callsubr
          vlineto
          hintmask 00110100
          234 vlineto
          hintmask 10010100
          210 -19 callgsubr
          146 78 callsubr
          -45 callgsubr
          224 rrcurveto
          endchar
        </CharString>
        <CharString name="circumflex">
          -88 1238.99 142 callsubr
          86 879 hintmask 10100000
          965 1252.99 rmoveto
          hintmask 01100000
          162 callsubr
          147 callsubr
          hintmask 10100000
          2 callsubr
          61 callsubr
          274.98 vlineto
          hintmask 01100000
          161 217 callsubr
          endchar
        </CharString>
        <CharString name="colon">
          -499 114 callgsubr
          369.99 404.98 206 callgsubr
          hstem
          116 391.98 vstem
          311.99 1134 rmoveto
          -115 -81 -80.02 173 callgsubr
          21 callgsubr
          -115 hvcurveto
          -775 vmoveto
          6 callgsubr
          endchar
        </CharString>
        <CharString name="comma">
          -555 -421 683.99 hstem
          -19 callsubr
          280 vstem
          435 29.98 rmoveto
          67 callsubr
          233 rlineto
          -281.99 -257 hlineto
          -171.97 -70 -83 -38 -91.01 vhcurveto
          179.02 -81 rlineto
          115 2 callgsubr
          94 174 205 callsubr
          vvcurveto
          endchar
        </CharString>
        <CharString name="copyright">
          480 -20 76 callgsubr
          176.98999 135 623.01001 135 175.98999 218 callsubr
          224.98999 215 callgsubr
          372.03 215 callgsubr
          266 -87 callsubr
          321 491 rmoveto
          -156 hlineto
          -130 -61 -61 callsubr
          -118.01 -128 -65 103 149 vhcurveto
          120 vlineto
          147 65 104 128 118.01 -45 callsubr
          -51 -128 vhcurveto
          156.02 hlineto
          209 -130 105 -206 -215 -134 -158 -229 vhcurveto
          -118.99 vlineto
          -230 134 -157 215 206 129 104 210 vhcurveto
          endchar
        </CharString>
        <CharString name="crossbar">
          -114 168 callgsubr
          200 hstem
          136.99 743.99 vstem
          880.99 168 callgsubr
          rmoveto
          200 -744 -200 vlineto
          endchar
        </CharString>
        <CharString name="currency">
          258 -20 100 callsubr
          863 168 callsubr
          hstem
          98.97 186.01 819.01001 133 callgsubr
          vstem
          1288.99 607.99 rmoveto
          137 -40 124 -57 callgsubr
          101 vhcurveto
          148 150 -142 145 -144 -147.99 rlineto
          74 -98 -121 -33 callsubr
          -130 hhcurveto
          -130 -120 -58 callgsubr
          -59 callsubr
          -98 hvcurveto
          -142 145 -140.98 -144 184 callsubr
          -147 rlineto
          -69 117 callsubr
          -40.02 121 callgsubr
          -138 vvcurveto
          -131.99 37 -121.02 63 -98.98 vhcurveto
          -134.98 -138.02 140.98 -143.99 129 131.99 rlineto
          -80 100 76 callgsubr
          -45.99 136 hhcurveto
          136 76 callgsubr
          47 81 100 hvcurveto
          132 -134.98 142 144.98 -139 141 rlineto
          62 99 36 119.99 130 vvcurveto
          -594 -432 rmoveto
          -228 -181.99 186 246 246 180 callgsubr
          185 228 226 183 -185 -246 -246 -183 -186 -226 hvcurveto
          endchar
        </CharString>
        <CharString name="d">
          21 -49 callgsubr
          546.01001 190 callgsubr
          -60 callsubr
          297.00002 -100 callgsubr
          hintmask 10111000
          701.99 1536 rmoveto
          -548 vlineto
          70.98 -60 203 callgsubr
          43 -98.02 hhcurveto
          -279 -140 140 callgsubr
          48 callsubr
          140 -233 277.01 111 -81 callgsubr
          54 86 63 vhcurveto
          hintmask 01111000
          18 -119.99 rlineto
          322.01 1536 hlineto
          hintmask 10111000
          -507 -1268.02 rmoveto
          -118 -55 callsubr
          112 148 hvcurveto
          21 vlineto
          135 callsubr
          -19 callgsubr
          110 -6 callgsubr
          69 -73 callgsubr
          -27.02 -57 27.02 vhcurveto
          -380.99 vlineto
          -52.02 -28 136 callsubr
          -29 -69 hhcurveto
          endchar
        </CharString>
        <CharString name="d.ss06">
          46 -20 -71 callsubr
          -267.98 153 callgsubr
          190 callgsubr
          50.99 -95 callsubr
          316.01 -100 callgsubr
          hintmask 01111000
          726 1536 rmoveto
          -547 vlineto
          70.99 -60 -77 42 -98 hhcurveto
          -279 -160.99 -222 162 callgsubr
          112 callgsubr
          hintmask 10111000
          -314.98 36 callsubr
          -235 278 113 85 56.99 89 64 vhcurveto
          hintmask 01111000
          23 213 callgsubr
          rlineto
          312.01 1536 hlineto
          hintmask 10111000
          -506 -1268.02 rmoveto
          -118 -52 -6 callgsubr
          78 callsubr
          hvcurveto
          -66 callgsubr
          -34 callsubr
          57 -35 callgsubr
          115 212 callgsubr
          -35 callsubr
          -22.02 -47 31.01 vhcurveto
          -406 vlineto
          -46 -32 -51 -25 -63 hhcurveto
          endchar
        </CharString>
        <CharString name="degree">
          -308 905.99 101 callsubr
          251.99998 159 hstem
          76 callgsubr
          158 246.98999 159 vstem
          206 callsubr
          1475.99 rmoveto
          -156 -129 -130 -157 -157 129 -126 156 153 183 callgsubr
          126 157 157 213 callgsubr
          130 -153 hvcurveto
          -411.01 vmoveto
          207 callgsubr
          -59 53 71 73.01 59 33 callgsubr
          67.99 -66 callsubr
          52.99 68 callsubr
          -59 callsubr
          -80 callgsubr
          -52.99 -52.02 -57 callgsubr
          hvcurveto
          endchar
        </CharString>
        <CharString name="dieresis">
          -92 1223.98 132 callgsubr
          -30 callsubr
          -12 callgsubr
          313.02 hintmask 01110000
          785 1504.99 rmoveto
          -74 callgsubr
          -72 -2 callsubr
          72 -60.99 84.01 -48 callgsubr
          hvcurveto
          hintmask 10110000
          200 callgsubr
          -64 callsubr
          -82 callgsubr
          21 callsubr
          -61 -81 callgsubr
          84 73 61 -90 callgsubr
          -90 callgsubr
          -73 61 -84 hvcurveto
          endchar
        </CharString>
        <CharString name="divide">
          36 211 callsubr
          356.98 100.01 -38 callsubr
          75 callsubr
          357 hstem
          384.98 393.01 vstem
          581.98 1259.99 rmoveto
          -116 -81 139 callsubr
          -104.98 -106 81 -59 callsubr
          116 103 callsubr
          81 73.01 106 104.98 -81 73.02 119 callsubr
          hvcurveto
          527.01 -706.01 rmoveto
          -38 callsubr
          -1051 11 callgsubr
          vlineto
          523.99 -100 rmoveto
          -116 -81 -73 -105 -105 81 -74 116 103 callsubr
          81 74 105 105 -81 73 119 callsubr
          hvcurveto
          endchar
        </CharString>
        <CharString name="dollar">
          62 -220.99 479.98 -275.98999 43 1403.03 -98 callgsubr
          -36.97002 -98 callgsubr
          hstemhm
          -90 callgsubr
          -95 callsubr
          -305.99 -95 callsubr
          49.01 101 callsubr
          -139.00002 159 28 -95 callsubr
          -348.99 -44 callgsubr
          hintmask 0000000000000000
          hintmask 0101010110000000
          647.99 883 rmoveto
          -122 57 -35 42 80 vvcurveto
          69 35 66 -24 callsubr
          vhcurveto
          hintmask 0101000101000000
          -23 callgsubr
          63 -44 176 callsubr
          150 callgsubr
          hintmask 0110000100000000
          260 -159 169 -238 35 vhcurveto
          136 callgsubr
          -159 vlineto
          hintmask 0101010100000000
          -208 vlineto
          -253.99 -22 -174 -157 -230 vvcurveto
          -281.99 190 -87 268 -116 vhcurveto
          hintmask 1001100110000000
          114.02 -50 -33 callsubr
          -34 -18 callgsubr
          vvcurveto
          -66 -36 -63 0 callgsubr
          -98 185 callgsubr
          54 164 callgsubr
          vhcurveto
          -359 hlineto
          hintmask 0101101000000000
          -336 226 -135 235 -23.98 vhcurveto
          hintmask 1001001000000000
          -204 101 callsubr
          vlineto
          hintmask 0101001000000000
          204 vlineto
          hintmask 0101000110000000
          243.02 24.98 163.99 147 234.99 vvcurveto
          hintmask 0101010110000000
          279.02 -198.99 -30 callsubr
          11 callgsubr
          118.01 vhcurveto
          endchar
        </CharString>
        <CharString name="dollar.smcp">
          -2 -236.99 476.98 -252.98999 43 -42 43 -43 251.99 572 367 -254 469.99 121 callsubr
          71 160 38 -95 callsubr
          -339.98 333.98 hintmask 0000000000000000
          hintmask 0010010110100000
          587.98 735.99 rmoveto
          92 callgsubr
          vhcurveto
          hintmask 0010100011000000
          78 callgsubr
          58 -60 -53 hvcurveto
          359 hlineto
          hintmask 0010100010000000
          222 -167 115 -229.99 155 callsubr
          vhcurveto
          hintmask 0010010110000000
          220 -160 -216 vlineto
          -231 -18 -173 -139 -200 vvcurveto
          140 callgsubr
          20 callsubr
          -76 319 113 callsubr
          vhcurveto
          hintmask 0001011010100000
          59 callgsubr
          -149 -40.99 42 105 vhcurveto
          -360.02 hlineto
          hintmask 0100011010000000
          -267 215 -112 229 -57 callsubr
          vhcurveto
          hintmask 1000010010000000
          140 callgsubr
          160 vlineto
          hintmask 0010010010000000
          224.99 vlineto
          hintmask 0010010010100000
          239 0 callsubr
          151.98 122 206 vvcurveto
          hintmask 0010010110100000
          237 -145 98 -315 64 vhcurveto
          endchar
        </CharString>
        <CharString name="dotlessi">
          -535 0 43 hstem
          23 callgsubr
          -40 callgsubr
          478.99 hmoveto
          55 callgsubr
        </CharString>
        <CharString name="e">
          -79 callsubr
          hstem
          29 callgsubr
          vstem
          1082.98 573.99 rmoveto
          331 -192 197 -20 callgsubr
          -255 -304 vhcurveto
          -106 callsubr
        </CharString>
        <CharString name="e.ss07">
          -79 callsubr
          hstem
          -33 callgsubr
          367 310.98999 193 callsubr
          177 callgsubr
          rmoveto
          337 -192 203 -20 callgsubr
          -257 -308 vhcurveto
          34 callsubr
          vlineto
          -286 216 -234 351.99 175 148 178 callgsubr
          50 86 vhcurveto
          -53 254 rlineto
          -37 -80 -128 -23 185 callgsubr
          hhcurveto
          -161 203 callgsubr
          126 callgsubr
          -24 hvcurveto
          658.99 hlineto
          -349 227 rmoveto
          -310.99 hlineto
          22 callgsubr
          15 42 73.02 105 hhcurveto
          101 -8 callsubr
          -41 -97 hvcurveto
          endchar
        </CharString>
        <CharString name="eacute">
          -79 callsubr
          115.99998 -68 callsubr
          29 callgsubr
          vstem
          920.99 1536.98 rmoveto
          -373 hlineto
          31 callsubr
          439.99 -644 rmoveto
          331 -192 197 -20 callgsubr
          -255 -304 vhcurveto
          -106 callsubr
        </CharString>
        <CharString name="ecircumflex">
          -79 callsubr
          137.99998 57 callsubr
          29 callgsubr
          hintmask 00000000
          hintmask 11101110
          529 1367 rmoveto
          162 -127.02 rlineto
          280.98 181 callgsubr
          hlineto
          -339.99 147 callsubr
          hintmask 11110110
          2 callsubr
          -277.02 58 callgsubr
          715 -665.99 rmoveto
          331 -192 197 -20 callgsubr
          -255 -304 vhcurveto
          -106 callsubr
        </CharString>
        <CharString name="edieresis">
          -79 callsubr
          123.01 16 callgsubr
          82 callsubr
          -318.99 -12 callgsubr
          -58 callsubr
          -214.99 348.99 hintmask 0000000000000000
          hintmask 1110110100000000
          791.98 1225.99 rmoveto
          -75 callgsubr
          -81 callsubr
          43 callsubr
          -81 callgsubr
          hvcurveto
          hintmask 1111001010000000
          62 callsubr
          84 -71 callgsubr
          -84 -50 callsubr
          823.99 -651 rmoveto
          331 -192 197 -305.99 vhcurveto
          hintmask 1110110010000000
          -363.01 -165.99 -255 -304 hvcurveto
          -106 callsubr
        </CharString>
        <CharString name="egrave">
          -79 callsubr
          115.99998 -68 callsubr
          29 callgsubr
          vstem
          736.99 1217.99 rmoveto
          -200 319 rlineto
          -374.01 hlineto
          285.03 -319 rlineto
          634.98 -644 rmoveto
          331 -192 197 -20 callgsubr
          -255 -304 vhcurveto
          -106 callsubr
        </CharString>
        <CharString name="eight">
          -104 callgsubr
        </CharString>
        <CharString name="eight.frac">
          168 callgsubr
          188 131 187 118 188 -56 callsubr
          1070.98 29 callsubr
          58 132 callsubr
          -14 callgsubr
          90 callsubr
          41 -58 118 callsubr
          -35 vhcurveto
          hintmask 11110010
          -77 34 callsubr
          -49 -63 44 callsubr
          63 -77 -34 callgsubr
          vhcurveto
          hintmask 11101100
          -194.99 206 -37 callsubr
          1 callsubr
          43 45 37 17 47 51 36 -17 -45 -43 34 callgsubr
          -38 callgsubr
          -51 hvcurveto
          endchar
        </CharString>
        <CharString name="eight.smcp">
          -49 -67 callsubr
          173.99 -103 callsubr
          154.99998 83 callsubr
          64 -100 callgsubr
          -333 -95 callsubr
          180.99998 -91 callgsubr
          -331.01 -44 callgsubr
          hintmask 11110010
          833.99 599.98 rmoveto
          hintmask 11101100
          98 53 20 callgsubr
          83 110 vvcurveto
          224 -182 204 callgsubr
          -267 11 callgsubr
          -190 -111.99 -224 -109 59 -74 callgsubr
          99 -52 vhcurveto
          hintmask 11110010
          185 callsubr
          68 callsubr
          -80 callgsubr
          137 callgsubr
          -128.99 vvcurveto
          -233 204.98 -18 callgsubr
          273 278.02 197 9 callgsubr
          233 128.99 -70 92.02 185 callsubr
          53.99 vhcurveto
          hintmask 11101100
          -293.99 292 rmoveto
          -93 callsubr
          24 24 callsubr
          -52 -48 -22 -35 -57 callgsubr
          -64.99 -27.01 35 48 -8 callsubr
          29 24 61 hvcurveto
          hintmask 11110010
          67 callsubr
          -618.99 rmoveto
          -65.99 -52 35.99 56 63 52 19 64 69 -73 callgsubr
          -19 -63 -56 -47 -35.99 -69 hvcurveto
          endchar
        </CharString>
        <CharString name="eight.sup">
          114 callgsubr
          -6 callsubr
          12 callgsubr
          160 callgsubr
          118.01 188 -56 callsubr
          407 29 callsubr
          57 75 -14 callgsubr
          -74 41 -58 68 -35 vhcurveto
          hintmask 11110010
          203 callgsubr
          -37 -49 -63 -87 vvcurveto
          -157 137 113 callsubr
          51 callsubr
          73.99 157 87 -48 63 -77 37 vhcurveto
          hintmask 11101100
          66 callsubr
          205.99 -37 callsubr
          155 callsubr
          -33 callsubr
          212 callsubr
          37 17.02 47 51 36 -17.02 106 callgsubr
          -42.99 34 callgsubr
          -52 callsubr
          -51 hvcurveto
          endchar
        </CharString>
        <CharString name="eight.tnum">
          -104 callgsubr
        </CharString>
        <CharString name="ellipsis">
          488 114 callgsubr
          369.99 hstemhm
          183 callgsubr
          391.98 104.02 186 callsubr
          104.99998 186 callsubr
          hintmask 00000000
          hintmask 11110000
          321.98 -95 callsubr
          rmoveto
          6 callgsubr
          497.01 hmoveto
          -116 -41 callgsubr
          116 115 -41 callsubr
          -115 hvcurveto
          497.99 hmoveto
          -116 -41 callgsubr
          116 115 -41 callsubr
          -115 hvcurveto
          endchar
        </CharString>
        <CharString name="emdash">
          402 557.99 99 callsubr
          hstem
          76.98 1417.01 vstem
          1494 558 rmoveto
          295 -1417.02 -295 vlineto
          endchar
        </CharString>
        <CharString name="endash">
          124 557.99 99 callsubr
          hstem
          157 callsubr
          1062.99 vstem
          1205.99 558 rmoveto
          295 -1063 -295 vlineto
          endchar
        </CharString>
        <CharString name="equal">
          82 248.99 100 callgsubr
          159.01 287 hstem
          123.99 940.99 vstem
          1064.98 694.99 rmoveto
          287.01 -941 -287.01 vlineto
          941 -445.99 rmoveto
          100 callgsubr
          -941 -286.98 vlineto
          endchar
        </CharString>
        <CharString name="eth">
          30 -48 callsubr
          420 264.99 225.04999 -63 callgsubr
          -33 callgsubr
          -95 callsubr
          357.01 -40 callgsubr
          872.98 1306.99 rmoveto
          116.02 70 -76 122 -157 -94 211 callgsubr
          83 -141 59 -158 3 callsubr
          rlinecurve
          -114 -266 77 -20 -23 callgsubr
          -29.99 71 -41 rlinecurve
          -120 -59 callsubr
          -23 callgsubr
          -122 169 2 callgsubr
          65 callsubr
          -61 54 -75 35 -93 rlinecurve
          37 -64 -75 18.99 -83 hhcurveto
          -305.01 -148.99 66 callsubr
          -292 -272 208 -216 314 318.02 235.99 256 374 hvcurveto
          52 vlineto
          263.98 -97 220.02 -162.02 161 vhcurveto
          -291 -1037 rmoveto
          -104 -63 74 124 137 51 85 122 88 60 -23 -30 36 hvcurveto
          -82 callgsubr
          vlineto
          -165 -58 -123 -132 vhcurveto
          endchar
        </CharString>
        <CharString name="exclam">
          -561 -20 374 1061.01999 -98 callgsubr
          hstemhm
          93.98 397 -362.51 335.52 hintmask 11010000
          439.99 476 rmoveto
          48 979.99 rlineto
          -383.02 hlineto
          47 -979.99 rlineto
          hintmask 11100000
          141 -122 rmoveto
          -117 -82 -81 -106 -106 82 -80.99 117 116 82 80.99 106 106 -82 81 -116 hvcurveto
          endchar
        </CharString>
        <CharString name="exclamdown">
          -498 728.98 373 hstemhm
          121 396 -369.52 335.5 hintmask 00000000
          hintmask 11000000
          319 728.99 rmoveto
          116 82 80 106 107.01 -82 80 -116 -117 -81 -80 167 callgsubr
          -106 81 -80 117 hvcurveto
          hintmask 10100000
          -148 -123.99 rmoveto
          -47 -980 rlineto
          383 hlineto
          -47.99 980 rlineto
          endchar
        </CharString>
        <CharString name="f">
          -384 -70 callsubr
          vstem
          519.99 1163 rmoveto
          -94 callgsubr
          208 -38 callsubr
          -208 vlineto
          endchar
        </CharString>
        <CharString name="f_f">
          363 -70 callsubr
          386.01 -40 callgsubr
          668 1268.98 rmoveto
          -34 callgsubr
          14 callsubr
          hvcurveto
          -3 275 rlineto
          12 -72 callsubr
          -53 10 -60 hhcurveto
          -258.99 -164 -138 -256 hvcurveto
          -81 -73 callsubr
          208 -38 callsubr
          -208 81 vlineto
          69 53 -34 callgsubr
          95.01 vhcurveto
          598 -105.99 rmoveto
          69 53 -34 callgsubr
          134 callsubr
          37 14 callsubr
          vhcurveto
          -3 275 rlineto
          12 -72 callsubr
          -53 10 -60 hhcurveto
          -258.99 -164 -138 -256 hvcurveto
          -81 -155 11 callgsubr
          155 -822.99 360 822.99 208 -38 callsubr
          -208 vlineto
          endchar
        </CharString>
        <CharString name="f_f_i">
          882 0 43 779.98 -38 callsubr
          163.99 311 -288 288.01 hstemhm
          48 callgsubr
          334.01 -100 callgsubr
          333.99998 -23 callsubr
          hintmask 11101110
          1213.99 1090.99 rmoveto
          99 -85 callgsubr
          -33 callgsubr
          116 135 76 -22 24 callsubr
          82 vhcurveto
          49 296 rlineto
          34 -126.02 -112 23 -10 callsubr
          hhcurveto
          -336 -192 -163 -303 hvcurveto
          -9 -126.02 vlineto
          -208 hlineto
          hintmask 11011110
          81 vlineto
          -94 callgsubr
          179 vlineto
          135 callsubr
          -822.99 360 822.99 211 -38 callsubr
          hlineto
          hintmask 11101110
          -211 hlineto
          333.99 hmoveto
          -1082 -23 callsubr
          1082 vlineto
          endchar
        </CharString>
        <CharString name="f_f_l">
          882 -70 callsubr
          334.01 -100 callgsubr
          333.99998 -23 callsubr
          vstem
          1351.99 1556.99 rmoveto
          -314 -183.99 -147 -273 hvcurveto
          68 callsubr
          -126.02 vlineto
          -208 81 hlineto
          -94 callgsubr
          179 vlineto
          135 callsubr
          -822.99 360 822.99 208 -38 callsubr
          -208 33 callgsubr
          hlineto
          86 71 46 76 callgsubr
          47 45 -1.99 165 callsubr
          46 vhcurveto
          -1262.98 -23 callsubr
          1547.98 vlineto
          3 -139.02 -278 6 -139 hhcurveto
          endchar
        </CharString>
        <CharString name="f_l">
          188 -70 callsubr
          334.01 -40 callgsubr
          657.98 1556.99 rmoveto
          -314 -184 -147 -273 hvcurveto
          68 callsubr
          -73 callsubr
          208 -38 callsubr
          -208 33 callgsubr
          vlineto
          86 71 46 76 callgsubr
          47 46 -1.99 165 callsubr
          -17 callgsubr
          vhcurveto
          -1262.98 360 1547.98 vlineto
          3 -139 -278 6 -139.02 hhcurveto
          endchar
        </CharString>
        <CharString name="fi">
          198 0 43 779.98 -38 callsubr
          163.99 311 hstem
          169.98 -100 callgsubr
          334.01 -40 callgsubr
          529.98 1090.99 rmoveto
          99 72 -33 callgsubr
          117 134 76 -22 24 callsubr
          83 vhcurveto
          -8 callsubr
          296 rlineto
          34 -10 callsubr
          -112 23 213 callgsubr
          hhcurveto
          -336.02 -191 -163 -303 hvcurveto
          -9 -73 callsubr
          211 -38 callsubr
          -211 vlineto
          334 hmoveto
          -1082 360 1082 vlineto
          endchar
        </CharString>
        <CharString name="five">
          62 -48 callsubr
          439 249.99 210.99998 286 hstem
          743.99 -79 callgsubr
          vstem
          134 callsubr
          706.99 rmoveto
          285 -70 rlineto
          28 19 33 callgsubr
          44 94 hhcurveto
          142 54 -76 164 callsubr
          210 callsubr
          -52 callsubr
          185 callsubr
          -129 -92 -91 callsubr
          64 89 165 callsubr
          hvcurveto
          -362 hlineto
          -266 -6.99 264.99 -177 263 hhcurveto
          351 36 callsubr
          247.99 243.02 315.98 -161 172.02 -291 -91.01 -85 -35 -16.02 -29 hvcurveto
          32 262 rlineto
          575 286 -866 hlineto
          endchar
        </CharString>
        <CharString name="five.frac">
          168 callgsubr
          240 137 155 88.01001 39 callsubr
          1041.98 rmoveto
          159 callgsubr
          -46 95 callsubr
          24 callgsubr
          105 callsubr
          hhcurveto
          71 30 -35 -91 callsubr
          -46 -10 -47 -75 -53 -34 9.99 26 callgsubr
          138 callgsubr
          162 hhcurveto
          -9 callsubr
          100 144.02 25 callsubr
          -74 callsubr
          -5 -14 hvcurveto
          19 114.02 47 callsubr
        </CharString>
        <CharString name="five.smcp">
          -49 -67 callsubr
          120 callgsubr
          355.98 195.00002 233 121 275.98 hstemhm
          640 -95 callsubr
          hintmask 01111000
          -46 callsubr
          555.99 rmoveto
          285 -70 rlineto
          9.99 11 -17 callgsubr
          139 callgsubr
          93.99 hhcurveto
          99 40.02 -48 -86 hvcurveto
          hintmask 10111000
          -60 -9.02 -68 -106 vhcurveto
          hintmask 01111000
          113 callsubr
          -47 11 -33 callgsubr
          5 hvcurveto
          -365 hlineto
          -212.99 -5 242 216 callgsubr
          244 hhcurveto
          324.02 150 216.98 201.99 237.02 164 callsubr
          128 -267 -82 callgsubr
          -88 -30 -6 24 callsubr
          hvcurveto
          28 157 rlineto
          485.99 275.98 -775 hlineto
          endchar
        </CharString>
        <CharString name="five.sup">
          114 callgsubr
          -6 callsubr
          -187.99 239.98 137.00002 -19 callsubr
          88.01 179.99 hstemhm
          461.98 233 hintmask 01111000
          70.98 378 rmoveto
          159 callgsubr
          -46.02 95 callsubr
          25 105 callsubr
          hhcurveto
          71 30 -35 -61 hvcurveto
          hintmask 10111000
          -46 -10 -47 -75 vhcurveto
          hintmask 01111000
          -53 -34 10 26 callgsubr
          -94.98 162 hhcurveto
          -9 callsubr
          100 184 callsubr
          25 callsubr
          -21 -5.02 -14 hvcurveto
          19 -6 callgsubr
          47 callsubr
        </CharString>
        <CharString name="five.tnum">
          1 endchar
        </CharString>
        <CharString name="four">
          62 0 43 258.99 -103 callsubr
          823.03998 -63 callgsubr
          631.99 -95 callsubr
          vstem
          1130.99 591.99 rmoveto
          -140 863.99 -72 callgsubr
          hlineto
          -286 -6 hlineto
          -572 -914.99 24 -233 rlineto
          548 -302 359 302 140 hlineto
          -733 290 rmoveto
          212 338.99 22 38.02 rlineto
          -377 vlineto
          endchar
        </CharString>
        <CharString name="four.frac">
          817.99 110 callgsubr
          1007.98 172 callsubr
          218 callgsubr
          -154 234 154 76 hlineto
          -436 189.99 rmoveto
          110 144.02 16 23.98 rlineto
          -168 vlineto
          endchar
        </CharString>
        <CharString name="four.smcp">
          -49 0 43 180.99 293 hstem
          550.99 -95 callsubr
          vstem
          1023 517 rmoveto
          185 callsubr
          647.99 -63 callsubr
          hlineto
          -292 77 callsubr
          hlineto
          -495 -690.01 166 callsubr
          -242 rlineto
          468.01 140 callgsubr
          359 223.99 113.01 hlineto
          -635 135 callgsubr
          rmoveto
          146 190 17 25 rlineto
          -215 vlineto
          endchar
        </CharString>
        <CharString name="four.sup">
          0 343.98 -189.98999 189.99 hstemhm
          149 callsubr
          hintmask 10100000
          707.99 343.98 172 callsubr
          hintmask 01100000
          218 callgsubr
          hlineto
          hintmask 10100000
          99 callgsubr
          234 vlineto
          hintmask 01100000
          -34 callsubr
          76 vlineto
          hintmask 10100000
          -436 190 rmoveto
          110 144.02 16 24 rlineto
          -168.02 vlineto
          endchar
        </CharString>
        <CharString name="four.tnum">
          38 endchar
        </CharString>
        <CharString name="fraction">
          -232 108.99 1219.99 hstem
          156 callsubr
          876.01 vstem
          172.99 108.99 rmoveto
          711 1138 -165 82 -711 -1137.99 rlineto
          endchar
        </CharString>
        <CharString name="g">
          53 14 callgsubr
          -35 callsubr
          -79 callgsubr
          323.01 -40 callgsubr
          765.99 1082 rmoveto
          -12 137 callgsubr
          rlineto
          70 -57 -81 42 -120.02 hhcurveto
          209 callgsubr
          -169 140 callgsubr
          48 callsubr
          168 -233 276.01 101.99 77 41 66 58 87 callsubr
          -126.97 -59 callsubr
          -76 202 callsubr
          -115 -51 callgsubr
          53 47 -61 callsubr
          vhcurveto
          -147 -222 rlineto
          -94 88 162 -60 151 hhcurveto
          338 226 170 302.98 hvcurveto
          1035.02 147 callgsubr
          -118.01 -59 112 148 hvcurveto
          21 vlineto
          135 callsubr
          64 110 103 callsubr
          -93 callsubr
          47 106 callsubr
          -41 30 vhcurveto
          -425 vlineto
          -39 -30 -48 -74 callsubr
          207 callgsubr
          hhcurveto
          endchar
        </CharString>
        <CharString name="g.alt">
          -47 -438 263 161 264 -255 43 294.98 264 331 154 hstemhm
          -28 329.99 -279.99 356 -236.01 231.99 289.01 355.98 -313.99 356 hintmask 0000000000000000
          hintmask 1101100101000000
          695.99 250 rmoveto
          -195 hlineto
          -80 callgsubr
          -55 6.99 60 11 3 69 callgsubr
          5 156 callsubr
          hvcurveto
          -7.99 67 callgsubr
          46 165 callsubr
          50 hhcurveto
          hintmask 1101101010000000
          304 192.99 163 211 hvcurveto
          22 vlineto
          76 -22 -66 callsubr
          -41 -33 callgsubr
          vhcurveto
          105 hlineto
          -2 154 rlineto
          120 callsubr
          hlineto
          138 callsubr
          -54 -91 callsubr
          7 -66 hhcurveto
          -303 66 callsubr
          -147.99 -225 hvcurveto
          -22 vlineto
          -141 87 -118.99 147 -64 vhcurveto
          hintmask 1101100110000000
          -62.02 -40 -52 -56 -82 vvcurveto
          -53 158 callgsubr
          -58 callgsubr
          24 callgsubr
          -32 vhcurveto
          hintmask 1101110001000000
          -112 -29 callgsubr
          -97.98 -82 callgsubr
          -117 vvcurveto
          -147 9 callsubr
          -129 339 361 205.99 204 176 vhcurveto
          hintmask 1101100101000000
          186 -135 122 -229.99 vhcurveto
          hintmask 1101101010000000
          -318 478.99 rmoveto
          65 50 44 92 93 50 -44 -65 vhcurveto
          -22 vlineto
          -62 -48 -48 -93 -95 -61 callsubr
          48 62 vhcurveto
          hintmask 1011110001000000
          116 -881.99 rmoveto
          -130 -62 49 -33 callgsubr
          28 10 callgsubr
          23 182 callgsubr
          181 callgsubr
          hvcurveto
          hintmask 1101101001000000
          -6 3 callsubr
          35 callsubr
          -3 34 hhcurveto
          183.99 hlineto
          -66 callsubr
          18.99 -47 -23 hvcurveto
          hintmask 1011110001000000
          -45 -61 callsubr
          -46 -162 vhcurveto
          endchar
        </CharString>
        <CharString name="g.ss06">
          48 14 callgsubr
          50.99 -95 callsubr
          316.01 -40 callgsubr
          769.99 73 callgsubr
          209 callgsubr
          -163 -220 48 callsubr
          162 -236.99 275.99 2 callgsubr
          77 41 -93 callsubr
          58 vhcurveto
          207 callsubr
          vlineto
          -163 -82 -74 -172 102 callgsubr
          -40 12 10 callgsubr
          -72 vhcurveto
          -34 -255 rlineto
          -39 92 9 callgsubr
          140 callsubr
          89 hhcurveto
          344 216 182 324.99 hvcurveto
          1001 147 callgsubr
          -118 -52 116.02 78 callsubr
          hvcurveto
          21 vlineto
          153 57 137 callsubr
          115 -66 callsubr
          48 -19 -40 29 vhcurveto
          -425 vlineto
          -40 -30 -48 -22.02 -68 hhcurveto
          endchar
        </CharString>
        <CharString name="g.ss07">
          53 14 callgsubr
          45.99 -95 callsubr
          295.99998 -40 callgsubr
          744.98 73 callgsubr
          -277 216 callgsubr
          -220 48 callsubr
          141.99 -236.99 276 102 77 41 -93 callsubr
          58 vhcurveto
          -162.98 -1 -83 -75 -169.99 hhcurveto
          -93 204 callsubr
          76 callsubr
          19 -75 hvcurveto
          -34 -255 rlineto
          -43 95 20 callsubr
          -11 93 hhcurveto
          344 216 184 328.99 hvcurveto
          995 147 callgsubr
          -118 -55 callsubr
          116.02 78 callsubr
          hvcurveto
          21 vlineto
          153 37 137 callsubr
          115 73 46 -22.02 -47.99 25 vhcurveto
          -404.01 vlineto
          124 callsubr
          -46.98 -25 -59 callsubr
          hhcurveto
          endchar
        </CharString>
        <CharString name="germandbls">
          217 -48 callsubr
          -269.99 24 callgsubr
          1249 -82 callsubr
          hstemhm
          133.98 -44 callgsubr
          176.00002 -79 callgsubr
          -271.99 362 -182 -79 callgsubr
          hintmask 01110100
          492.99 hmoveto
          1088 vlineto
          151 53 35 75 -23 callgsubr
          104 callgsubr
          -54 -62 vhcurveto
          hintmask 01111000
          -157 -86 10.02 -195.02 vvcurveto
          hintmask 10110010
          -246.99 266 -41 -146 vvcurveto
          -76 -60 -36 -68 -99 207 callgsubr
          16 19 -40.02 vhcurveto
          hintmask 01110100
          -62 -280 rlineto
          hintmask 10110010
          -30.99 56 -35 callgsubr
          -14 99 hhcurveto
          328.99 162 36 callsubr
          243.02 hvcurveto
          hintmask 01111000
          245.99 -265.99 112 99 vvcurveto
          hintmask 01110100
          175 90 -26.99 9 callsubr
          vvcurveto
          253 -210 139 -241 -334 -198 -159 -308 vhcurveto
          -1095.99 vlineto
          endchar
        </CharString>
        <CharString name="grave">
          -426 60 callsubr
          -33 callgsubr
          573.99 vstem
          629.99 1216.98 rmoveto
          66 callgsubr
          46 callsubr
          endchar
        </CharString>
        <CharString name="gravecomb">
          -1130 60 callsubr
          -916.99 573.99 vstem
          -343 56 callgsubr
          endchar
        </CharString>
        <CharString name="greater">
          -83 134 callsubr
          1008 hstem
          179 callsubr
          882.99 vstem
          179 callsubr
          1102.99 rmoveto
          -337 vlineto
          524 -165 -524 -169 rlineto
          -337 vlineto
          883 354 rlineto
          139 callgsubr
          vlineto
          261 vlineto
          endchar
        </CharString>
        <CharString name="guillemotleft">
          -63 179 callgsubr
          799 hstem
          -8 callgsubr
          909 vstem
          543.99 904.99 6 callsubr
          400.02 rlineto
          653 399 6 callsubr
          400.02 rlineto
          endchar
        </CharString>
        <CharString name="guillemotright">
          -63 104 798.98 hstem
          73.99 905.99 vstem
          558 494 rmoveto
          18.99 vlineto
          -269 390 rlineto
          122 callsubr
          421.99 798.99 rmoveto
          122 callsubr
          269 390 rlineto
          6 vlineto
          138 callsubr
          vlineto
          endchar
        </CharString>
        <CharString name="guilsinglleft">
          -474 179 callgsubr
          799 hstem
          9 callgsubr
          484 vstem
          591.99 904.99 6 callsubr
          399.02 rlineto
          endchar
        </CharString>
        <CharString name="guilsinglright">
          -509 104 798.98 hstem
          75 483.98 vstem
          290 902.98 rmoveto
          -215 hlineto
          227.99 -398.99 -227.99 -400 rlineto
          215 hlineto
          268.98 390 rlineto
          6 vlineto
          138 callsubr
          vlineto
          endchar
        </CharString>
        <CharString name="h">
          30 0 153 callgsubr
          -71 callsubr
          hstem
          79.99 -79 callgsubr
          276.01 -40 callgsubr
          709 97 callsubr
          -111 -93 -72 callsubr
          -74 callgsubr
          -57 callgsubr
          hvcurveto
          568.02 -358 -1536 358 765.99 vlineto
          30 25 40 18 65 callsubr
          hhcurveto
          75 callsubr
          55 -28.02 -122.99 hvcurveto
          -663 360 660.99 vlineto
          322.99 -151 118 -214 vhcurveto
          endchar
        </CharString>
        <CharString name="hyphen">
          -153 28 callgsubr
        </CharString>
        <CharString name="i">
          -558 0 43 1135.99 361 hstemhm
          78 callgsubr
          397 -376.01001 -100 callgsubr
          hintmask 00000000
          hintmask 11100000
          284 1539.99 rmoveto
          -117 -82 -74 -106 -107 82 141 callsubr
          180 callgsubr
          -1539.99 rmoveto
          55 callgsubr
        </CharString>
        <CharString name="iacute">
          69 callsubr
          317.99 1508.99 rmoveto
          32 callgsubr
          278 319 rlineto
          -212 -1508.99 rmoveto
          55 callgsubr
        </CharString>
        <CharString name="icircumflex">
          -535 0 43 1142.03 -98 callgsubr
          -14.01001 87 callgsubr
          23 callgsubr
          -100 callgsubr
          hintmask 00000000
          hintmask 11001000
          741.99 1225.99 rmoveto
          hintmask 10011000
          129 callgsubr
          hintmask 10101000
          2 callsubr
          209 callgsubr
          58 callgsubr
          161 111 callsubr
          281.01 hlineto
          -263 -1211.99 rmoveto
          55 callgsubr
        </CharString>
        <CharString name="idieresis">
          -535 0 43 201 callsubr
          280 hstemhm
          -127 -58 callsubr
          -67 -100 callgsubr
          -72 callgsubr
          -58 callsubr
          hintmask 00000000
          hintmask 11101000
          177 callgsubr
          1477.98 rmoveto
          82 callgsubr
          -91 callsubr
          -3 callgsubr
          -89 callsubr
          -83.99 hvcurveto
          -533 207 callsubr
          rmoveto
          -84 -53 callsubr
          84 -76 callsubr
          hvcurveto
          hintmask 11010000
          449.99 -1477 rmoveto
          55 callgsubr
        </CharString>
        <CharString name="igrave">
          69 callsubr
          506.98 1189.99 rmoveto
          66 callgsubr
          319 rlineto
          -373.99 hlineto
          284.98 -319 rlineto
          261 -1189.99 rmoveto
          55 callgsubr
        </CharString>
        <CharString name="j">
          -567 -437 292 1323.99 361 hstemhm
          22 callgsubr
          396 -370.99 -100 callgsubr
          hintmask 00000000
          hintmask 11100000
          -82 callsubr
          1539.99 rmoveto
          -117 -81 -74 -106 -107 81 141 callsubr
          187 -458 rmoveto
          -360 -1089 hlineto
          0 callgsubr
          165 callgsubr
          -48 -93.98 -36 -38 callgsubr
          5 4 -35 vhcurveto
          -284 vlineto
          -13.99 -45 callsubr
          43 -3 61.97 hhcurveto
          266.02 169 152 278 hvcurveto
          endchar
        </CharString>
        <CharString name="k">
          2 0 43 hstem
          219 callsubr
          vstem
          758.99 hmoveto
          409 hlineto
          -394.01 634.98 373 447.02 rlineto
          -429 hlineto
          -244 -307.02 -24 -55 callsubr
          rlineto
          793.99 -359 -1536.98 359 296.98 vlineto
          91.01 89 rlineto
          endchar
        </CharString>
        <CharString name="k.alt">
          0 0 43 202 callgsubr
          155 callgsubr
          hstem
          1 callgsubr
          -44 callgsubr
          vstem
          730.99 hmoveto
          409 hlineto
          -348.02 588.98 321 493.02 rlineto
          -412 hlineto
          -208 -389.02 rlineto
          106 callgsubr
          843.02 -359.02 -1536 359.02 206 callsubr
          58 hlineto
          endchar
        </CharString>
        <CharString name="k.alt2">
          -13 0 43 hstem
          1 callgsubr
          -44 callgsubr
          vstem
          1148.99 hmoveto
          -393.99 570.98 350.99 511.02 rlineto
          -405 hlineto
          -252.99 -389.02 rlineto
          867 -359.02 -1559.98 359.02 436 vlineto
          281.98 -436 rlineto
          endchar
        </CharString>
        <CharString name="l">
          -558 0 43 hstem
          179 callgsubr
          -40 callgsubr
          465.98 hmoveto
          1536 -360 -1536 vlineto
          endchar
        </CharString>
        <CharString name="less">
          -85 -30 callsubr
          1009 hstem
          41.98 896 vstem
          937.98 1105 rmoveto
          -896 -355 rlineto
          105 callgsubr
          vlineto
          -259.99 vlineto
          896 -355 rlineto
          337 vlineto
          -537.99 167 537.99 170 rlineto
          endchar
        </CharString>
        <CharString name="logicalnot">
          -8 633.99 184 callgsubr
          hstem
          759.99 200 vstem
          76 callgsubr
          804.99 rmoveto
          -170.99 635 -260.01 200 260.01 vlineto
          184 callgsubr
          vlineto
          endchar
        </CharString>
        <CharString name="longs">
          -587 0 43 1223.99 32 callsubr
          78 callgsubr
          -95 callsubr
          vstem
          78 callgsubr
          hmoveto
          359 1163 hlineto
          69 45 35 21 callgsubr
          46 23 165 callsubr
          -6 34 vhcurveto
          24 279.02 rlineto
          11.98 -58 -55 69 callgsubr
          -58 hhcurveto
          -278 -162 -138 -256 hvcurveto
          endchar
        </CharString>
        <CharString name="longst">
          235 -20 293 -273 43 779.98 -38 callsubr
          185.00002 83 callsubr
          36 callsubr
          -95 callsubr
          283.98999 -44 callgsubr
          hintmask 00000000
          hintmask 10111100
          1269.99 273 rmoveto
          -86 -22 24 callgsubr
          21 callgsubr
          hvcurveto
          444.99 175 -38 callsubr
          -175 272 vlineto
          94 vlineto
          39 -135 -186 70 -241 hhcurveto
          -278 -162 -138 -256 hvcurveto
          -81 -154.99 11 callgsubr
          -19 callsubr
          vlineto
          hintmask 01111100
          -822.99 359 1163 vlineto
          69 -17 callgsubr
          35 80 85 55 -15.02 -6.99 18.99 vhcurveto
          -163 -128 11 callgsubr
          128 -500 vlineto
          hintmask 10111100
          -240 35 callgsubr
          -102.99 229 -30 callgsubr
          62.02 69 callgsubr
          21.99 63 vhcurveto
          266 vlineto
          -4 -24 106 callsubr
          0 -40 hhcurveto
          endchar
        </CharString>
        <CharString name="m">
          630 0 153 callgsubr
          -71 callsubr
          hstem
          150 callsubr
          249.98999 -95 callsubr
          249.02 -40 callgsubr
          1333.99 97 callsubr
          -141 -104.98 -60 -103 -68.02 hvcurveto
          -6 callgsubr
          -50 -97.01 -73 callgsubr
          -10 callsubr
          hhcurveto
          -135 -103 11 callsubr
          -94 -70 hvcurveto
          -13 130 rlineto
          176 callgsubr
          -1082 -79 callgsubr
          735.99 hlineto
          48 31 47 30 56 hhcurveto
          75 41 -15.01 -129.99 hvcurveto
          -669 -95 callsubr
          721.98 vlineto
          16.02 vlineto
          -8 callsubr
          29.03 67 callgsubr
          28.02 -45 callsubr
          hhcurveto
          21 callsubr
          42 -74 callsubr
          -122 hvcurveto
          -670.99 360 671.99 vlineto
          326 -141 104 -193 vhcurveto
          endchar
        </CharString>
        <CharString name="macron">
          -47 1281.98 179.99 hstem
          160 callgsubr
          696.01 vstem
          883 1281.99 rmoveto
          180 -696.02 -180 vlineto
          endchar
        </CharString>
        <CharString name="minus">
          -17 557.99 99 callsubr
          hstem
          129.99 886 vstem
          1015.99 558 rmoveto
          295 -886 -295 vlineto
          endchar
        </CharString>
        <CharString name="multiply">
          -49 189.99 992.99 hstem
          47.98 981.99 vstem
          1029.98 983.98 rmoveto
          -203 199 -287.99 -293.99 -288.01 293.99 -203 -199 292 -297 -292 -297.98 203 -199 288.01 293.99 287.99 -293.99 203 199 -291.98 297.98 rlineto
          endchar
        </CharString>
        <CharString name="n">
          220 callsubr
          hstem
          81 -95 callsubr
          274 -40 callgsubr
          735.99 1101.99 -65 callsubr
        </CharString>
        <CharString name="nine">
          62 -26 -84 callsubr
          183 266.99 462.99998 289.01 hstem
          76.98 -44 callgsubr
          313.00002 -79 callgsubr
          vstem
          591.99 1477 rmoveto
          -296 -219.02 -239 -286 -314 171 -180 261 87 83 34 52 63 hvcurveto
          -218 -33 -171 -51 -215 hhcurveto
          -21 -300.98 28 hlineto
          401 375.99 211 560.99 hvcurveto
          134 vlineto
          410.01 -245 187 -269.99 vhcurveto
          17 -752 rmoveto
          -115 -58 22 callgsubr
          133 106 56 133 211 callsubr
          102.02 58 -70 -165.99 hvcurveto
          -154 vlineto
          -40 -24 -44 -33 -80 callgsubr
          hhcurveto
          endchar
        </CharString>
        <CharString name="nine.frac">
          647.98 167 callsubr
          -7 callsubr
          169.98 194.01 188 -2 callgsubr
          1465 18 callgsubr
          -188 9 callgsubr
          -72 callgsubr
          157 47 48 17 29 40 hvcurveto
          -130 84 callgsubr
          374 hvcurveto
          60 vlineto
          250.99 -159 132 callsubr
          -158.99 vhcurveto
          -86.02 -296 rmoveto
          58.99 35 callsubr
          49 53 -8 callgsubr
          25 -20 -63 callsubr
          vhcurveto
          -85 vlineto
          -11.02 -13 -23 -11 -36 hhcurveto
          -65 -34 23 212 callgsubr
          hvcurveto
          endchar
        </CharString>
        <CharString name="nine.smcp">
          -49 -24 283.99 105 260.99 266.99998 -82 callsubr
          hstem
          62.99 -100 callgsubr
          234.01 -79 callgsubr
          vstem
          541 1181.98 rmoveto
          -266.02 156 callgsubr
          -198 -233 -285.98 164 callgsubr
          -100 227 65 callsubr
          69 24 41 59 hvcurveto
          -190.02 -34 -144 182 callgsubr
          -154 hhcurveto
          -20 -283.99 27.01 hlineto
          315 375.99 -89 callsubr
          575 hvcurveto
          89 vlineto
          383 -246 98 -227.99 vhcurveto
          -118 -439.99 rmoveto
          84 45 -93 callsubr
          73.01 -81 callgsubr
          32 -23 -91 vhcurveto
          -128 vlineto
          -12 -18 -30 -13 -48 hhcurveto
          0 callgsubr
          -48 1 callsubr
          -24 callsubr
          hvcurveto
          endchar
        </CharString>
        <CharString name="nine.sup">
          -15.99 185.98 79.00002 169.98 194.01 188 -2 callgsubr
          800.99 18 callgsubr
          -188 9 callgsubr
          -72 callgsubr
          157 47 -73 callgsubr
          17 29 40.02 hvcurveto
          -130 -22.02 -95.99 5 182 callsubr
          hhcurveto
          163 callgsubr
          -185.97 17 hlineto
          226 239 57.97 374 hvcurveto
          60 -15 callgsubr
          -73 callgsubr
          53 -8 callgsubr
          25 24 callsubr
          -57 callgsubr
          vhcurveto
          -81 callsubr
          vlineto
          -11.02 -13 -23 -12 -36 hhcurveto
          -65 -34 23.02 63 hvcurveto
          endchar
        </CharString>
        <CharString name="nine.tnum">
          43 endchar
        </CharString>
        <CharString name="ntilde">
          220 callsubr
          170.98999 194 callsubr
          81 -95 callsubr
          -253.01001 196 331.01001 -100 callgsubr
          -299.00002 195 hintmask 0000000000000000
          hintmask 1100110100000000
          455.99 1334.99 rmoveto
          hintmask 1110010100000000
          101 115 callgsubr
          hintmask 1101010010000000
          138 95 133 callsubr
          -195 10 rlineto
          hintmask 1110010010000000
          91 callgsubr
          hintmask 1100101100000000
          195 callsubr
          hintmask 1100110100000000
          196.02 -10.02 rlineto
          61 90 callgsubr
          23 40 vhcurveto
          hintmask 1110010100000000
          280 -233 -65 callsubr
        </CharString>
        <CharString name="numbersign">
          47 0 43 202 callgsubr
          194 242 194 375.04 -63 callgsubr
          10 callgsubr
          1115.99 vstem
          1130.99 845.99 rmoveto
          194 -235.99 vlineto
          -93 callsubr
          415.99 rlineto
          -205.99 hlineto
          -57 callgsubr
          -415.99 rlineto
          -147 hlineto
          66 415.99 192 callsubr
          -63 callsubr
          -415.99 rlineto
          -246 -194 215 hlineto
          -22 callgsubr
          214 callsubr
          rlineto
          -252 -194 221 hlineto
          33 callsubr
          -409.99 rlineto
          207.02 hlineto
          65 206 callsubr
          rlineto
          145.99 hlineto
          -64.99 -409.99 rlineto
          205.99 hlineto
          66 206 callsubr
          rlineto
          260 194 -228.99 hlineto
          -19 callgsubr
          215 callsubr
          rlineto
          -244 214 callsubr
          rmoveto
          -147 hlineto
          38 215 callsubr
          rlineto
          146.99 hlineto
          endchar
        </CharString>
        <CharString name="o">
          17 80 callsubr
          101 callgsubr
          -91 callgsubr
          vstem
          46.98 550.99 -107 callgsubr
        </CharString>
        <CharString name="o.ss06">
          45 -14 callsubr
          -19 callgsubr
          -95 callsubr
          381.01 -95 callsubr
          vstem
          -19 callgsubr
          550.99 -21 callgsubr
          206 -233 344.99 343 205 233 316.99 63 callgsubr
          316.99 -205 234 -344.99 -343 -206 -234 -316.99 vhcurveto
          -95 callsubr
          -43 callsubr
          104 callgsubr
          118 134 135.99 55 -118 -143 vhcurveto
          -74 callsubr
          vlineto
          -149 -56 -111 -133 79 callgsubr
          -55 160 callsubr
          endchar
        </CharString>
        <CharString name="oacute">
          17 -48 callsubr
          542 -103 callsubr
          114.99998 154 callgsubr
          -60 callsubr
          101 callgsubr
          -91 callgsubr
          vstem
          594.98 71 callgsubr
          -921 -985.01 -107 callgsubr
        </CharString>
        <CharString name="ocircumflex">
          17 -48 callsubr
          542 -103 callsubr
          137.01 142 callsubr
          -60 callsubr
          101 callgsubr
          -91 callgsubr
          hintmask 11101100
          1018.98 1252.99 rmoveto
          hintmask 11011100
          -339.99 147 callsubr
          hintmask 11101100
          -334 61 callsubr
          275 vlineto
          hintmask 11011100
          161.02 111 callsubr
          280.98 hlineto
          -972 -688 -107 callgsubr
        </CharString>
        <CharString name="odieresis">
          17 -48 callsubr
          542 -103 callsubr
          121.99998 132 callgsubr
          -60 callsubr
          -253.99998 -58 callsubr
          220.01 -58 callsubr
          -256.00002 -91 callgsubr
          hintmask 00000000
          hintmask 11011010
          839.99 1504.99 rmoveto
          -81 callsubr
          -72 -2 callsubr
          72 -44 callsubr
          -78.99 -82 callgsubr
          -30 callgsubr
          -61 59 callsubr
          61 -90 callgsubr
          -86 callsubr
          hvcurveto
          hintmask 11011001
          -260.02 -953 -107 callgsubr
        </CharString>
        <CharString name="oe">
          714 -48 callsubr
          148 227 167 32 callsubr
          -30 callgsubr
          -95 callsubr
          981.01 350 vstem
          1762 610.97 rmoveto
          306.02 -181 185 -293 vhcurveto
          -144 1 -111 -43 -81 -72 callgsubr
          rrcurveto
          -85 callgsubr
          -87 -118 42 -146 hhcurveto
          -343 -186 -234 -316.99 112 callgsubr
          -316.99 186 -233 345 148.99 119.01 67 callgsubr
          76 87 vhcurveto
          -75 89 120 106 callgsubr
          144 hhcurveto
          181 161 54 64 89 hvcurveto
          -81 227.99 rlineto
          -55 callsubr
          -94 -60 -24 216 callgsubr
          hhcurveto
          -117 -69 65 83 -38 callgsubr
          hvcurveto
          610 hlineto
          -990 204 callgsubr
          rmoveto
          -149 -36 -111 -133 -137 -35 111 149 63 callgsubr
          143 36 118 134 136 35 -118 -143 vhcurveto
          640 94 rmoveto
          -266 hlineto
          -30 callsubr
          11 35 71 -30 callsubr
          hhcurveto
          87 37 -29 callgsubr
          -97.02 hvcurveto
          endchar
        </CharString>
        <CharString name="ograve">
          17 -48 callsubr
          542 -103 callsubr
          114.99998 154 callgsubr
          -60 callsubr
          101 callgsubr
          -91 callgsubr
          vstem
          783.99 1216.98 rmoveto
          -200 46 callsubr
          -448 -665.99 -107 callgsubr
        </CharString>
        <CharString name="one">
          62 0 43 1143.03 -63 callgsubr
          492.99 -79 callgsubr
          vstem
          850.98 hmoveto
          1454 -30.99 vlineto
          -654 -227 rlineto
          -280 vlineto
          327 86 rlineto
          -1032.99 vlineto
          endchar
        </CharString>
        <CharString name="one.smcp">
          -49 0 43 hstem
          433.99 357 vstem
          791 hmoveto
          1157.98 -28.02 vlineto
          -615 -192 rlineto
          -269.99 vlineto
          286 47 rlineto
          -742.99 vlineto
          endchar
        </CharString>
        <CharString name="one.sup">
          0 43 47 callgsubr
          hmoveto
          785 -19 vlineto
          -383 -123 rlineto
          -177 vlineto
          170 31 rlineto
          -515.99 vlineto
          endchar
        </CharString>
        <CharString name="one.tnum">
          114 endchar
        </CharString>
        <CharString name="ordfeminine">
          -228 690.99 184 callsubr
          198.01 117 177.98999 148 hstemhm
          131.99 175 -159 172.99 254.01 175 hintmask 11101100
          775.99 704.98 rmoveto
          -19 58 -6.99 58 65 vvcurveto
          314 vlineto
          183 -117 93 -174 -188 -123 -98 -135 vhcurveto
          173 -14.01 rlineto
          64 52 35 86.02 -23 callgsubr
          38 106 callgsubr
          -82 vhcurveto
          -51 -102.01 vlineto
          hintmask 11110100
          -229.99 -111 -74 callgsubr
          176 callsubr
          -138.02 89 0 callgsubr
          36 callsubr
          94 66 -34 callgsubr
          -17 callgsubr
          40.99 hvcurveto
          4.01 -24 6 -23 7 -21.02 rrcurveto
          -292 218 rmoveto
          58 51 52 116 vhcurveto
          101.01 -136 hlineto
          -33 -36 -62 -29 -53 hhcurveto
          -80.02 34 callsubr
          90 callgsubr
          55 hvcurveto
          endchar
        </CharString>
        <CharString name="ordmasculine">
          -191 689.99 146 491.98999 148 hstem
          116.98 175 343 175 vstem
          116.98 1120.99 rmoveto
          -77 vlineto
          -206.99 134 -147 214.02 213 131.99 147 23 callsubr
          vhcurveto
          77 vlineto
          23 callsubr
          -131.99 148 -215 -212 -134 -148 -206.99 vhcurveto
          175 -77 rmoveto
          77 vlineto
          117 104 callgsubr
          75 callsubr
          115 116 -33 callgsubr
          0 callgsubr
          -117 vhcurveto
          -77 vlineto
          -118.99 11 callsubr
          -89 -114 -117 -56.02 89 23 callgsubr
          vhcurveto
          endchar
        </CharString>
        <CharString name="oslash">
          19 -48 callsubr
          542 -103 callsubr
          -93.00002 212.99 -40.95001 -98 callgsubr
          hstemhm
          -60 callsubr
          101 callgsubr
          -91 callgsubr
          hintmask 00000000
          hintmask 10101100
          895 1008.99 rmoveto
          103 213 rlineto
          -184 hlineto
          hintmask 11011100
          -70 202 callsubr
          rlineto
          76 callsubr
          165 callgsubr
          -58 8 -63 hhcurveto
          -343 -182 -234 -316.99 112 callgsubr
          -198 71 -165.99 138.02 103 callgsubr
          vhcurveto
          -105 -217.99 rlineto
          184 hlineto
          72 148.99 rlineto
          -13.98 51 33 callgsubr
          -7 61 hhcurveto
          344 181 233 316.99 hvcurveto
          -66 callgsubr
          hintmask 10101100
          196 -69.02 165 186 callgsubr
          97 vhcurveto
          hintmask 11011100
          -490 -479 rmoveto
          -66 callgsubr
          143 34 118 133 158 callgsubr
          76 callsubr
          -1 -45 callgsubr
          12 vhcurveto
          -196 -405.02 rlineto
          140 callsubr
          37 -45 callgsubr
          -33 callsubr
          47 vvcurveto
          336 hmoveto
          -149 -34 -111 -133 -13 -11 1 2 -11 vhcurveto
          191 396 rlineto
          8.01 -36 68 callgsubr
          -40 -42 vvcurveto
          endchar
        </CharString>
        <CharString name="otilde">
          17 -48 callsubr
          542 -103 callsubr
          150.99998 194 callsubr
          -60 callsubr
          -220.99998 100 callsubr
          360.99998 -91 callgsubr
          -326.99998 168 callsubr
          hintmask 0000000000000000
          hintmask 1110010010000000
          966.98 1533.99 rmoveto
          hintmask 1101010010000000
          66 callsubr
          10 rlineto
          hintmask 1110010010000000
          -91 callsubr
          -35 -23 -41 vhcurveto
          -95 -82 80 -103 hhcurveto
          hintmask 1100101100000000
          -136.99 -95 30 callsubr
          33 23 40 vhcurveto
          hintmask 1110010100000000
          100.99 115 callgsubr
          hintmask 1110010010000000
          138.02 134 callsubr
          133 callsubr
          hintmask 1110010100000000
          -920 -983 -107 callgsubr
        </CharString>
        <CharString name="p">
          23 -48 callsubr
          544 -71 callsubr
          hstem
          150 callsubr
          296.98999 -91 callgsubr
          vstem
          683.99 97 callsubr
          -18 callgsubr
          10 callsubr
          -29 callgsubr
          90 callsubr
          -59 hvcurveto
          -11 98.02 rlineto
          176 callgsubr
          -1498 -79 callgsubr
          505 hlineto
          -68 58 76 -41 2 callgsubr
          hhcurveto
          274 145 85 callgsubr
          -275 vhcurveto
          63 -567.99 rmoveto
          -148 -31 -116 210 callgsubr
          -75.02 -47.99 28 49 -52 callsubr
          vhcurveto
          394 vlineto
          50 25 47 23 75 hhcurveto
          20 callsubr
          37 113 callgsubr
          -156 hvcurveto
          endchar
        </CharString>
        <CharString name="p.ss06">
          46 -48 callsubr
          544 -71 callsubr
          hstem
          150 callsubr
          317 -79 callgsubr
          vstem
          683.99 97 callsubr
          167 callgsubr
          -82 callgsubr
          -29 callgsubr
          -59 callsubr
          -59 hvcurveto
          77 callsubr
          97.01 rlineto
          -338 -1498 -79 callgsubr
          503.99 hlineto
          -63 callsubr
          58 76 -41 2 callgsubr
          hhcurveto
          274 164 callgsubr
          236.99 315 hvcurveto
          21 vlineto
          329.01 -165.99 220 -275 vhcurveto
          83 -570 rmoveto
          -147.99 165 callgsubr
          -114.02 210 callgsubr
          -70 -49 23 42 -30 vhcurveto
          416.99 vlineto
          42 30 48 182 callgsubr
          69 hhcurveto
          20 callsubr
          20 callgsubr
          166 callgsubr
          -153 hvcurveto
          endchar
        </CharString>
        <CharString name="paragraph">
          -130 -56 callgsubr
          659.98 233 vstem
          659.99 hmoveto
          233 -69 callgsubr
          -316 hlineto
          -317.99 -174 66 callgsubr
          -268 -270.01 174 -198 317.99 hvcurveto
          83 hlineto
          endchar
        </CharString>
        <CharString name="parenleft">
          -405 -444 2038 hstem
          23 callgsubr
          278.99 vstem
          23 callgsubr
          591.99 rmoveto
          -34 vlineto
          -541 243 -362 256 -99 vhcurveto
          -66 callsubr
          180 rlineto
          -149 105 -138 246.99 468.01 vvcurveto
          -19 callgsubr
          vlineto
          469.01 138 246.99 149 107.01 vhcurveto
          -57 callgsubr
          177 rlineto
          -256 -99 -243 -362 -541 vvcurveto
          endchar
        </CharString>
        <CharString name="parenright">
          -408 -444 2038 hstem
          326.98 114 callsubr
          vstem
          634 558 rmoveto
          34 vlineto
          506 -256 397 -270 99 vhcurveto
          -68 -180.02 rlineto
          152 -108 134.98 -243 -469.01 vvcurveto
          -22 callgsubr
          vlineto
          -468.01 -140 -243.98 176 callsubr
          166 callgsubr
          vhcurveto
          68 -180 rlineto
          270 99 256 397 506 vvcurveto
          endchar
        </CharString>
        <CharString name="percent">
          394 -20 199 278.99 199 142.98999 199 279.01001 199 hstemhm
          87.98 228 200.01001 227 35 227 201.98999 227 hintmask 11111011
          87.98 1175.98 rmoveto
          118 callgsubr
          vlineto
          -163 -35 callgsubr
          -136 220 vhcurveto
          hintmask 11111111
          222 104 136 163 hvcurveto
          76.99 vlineto
          165 -104 136 -224 vhcurveto
          hintmask 11111011
          -217.99 -109.02 -136 -165 hvcurveto
          397 -1066.99 rmoveto
          711 1138 -164 82 -711 -1137.99 rlineto
          -5 908 rmoveto
          76.99 vlineto
          55 33 47 -46 callsubr
          vhcurveto
          hintmask 11111111
          69 32 -47 -55 hvcurveto
          118 callgsubr
          vlineto
          -52 -31 -48 -68 vhcurveto
          hintmask 11111011
          -68 -33 47 53 hvcurveto
          462 -742.01 rmoveto
          -77 vlineto
          -163.99 110 -136 220 223 102.99 136 163.99 vhcurveto
          77 vlineto
          164 -102.99 136 -225.02 -217.99 -110 -136 -164 vhcurveto
          227 -77 rmoveto
          77 vlineto
          54 34 47 -93 callsubr
          68.02 90 callgsubr
          -47 -54 vhcurveto
          -77 vlineto
          -53 77 callsubr
          -47.98 141 callgsubr
          -54 -61 callsubr
          47.98 53 vhcurveto
          endchar
        </CharString>
        <CharString name="period">
          -500 114 callgsubr
          369.99 hstem
          20 callsubr
          392 vstem
          308.98 -95 callsubr
          rmoveto
          93 callgsubr
          103 callsubr
          -41 callsubr
          119 callsubr
          hvcurveto
          endchar
        </CharString>
        <CharString name="periodcentered">
          -454 485.99 369.99 hstem
          115 callsubr
          391.98 vstem
          333.99 855.98 rmoveto
          -115 -81 -80 173 callgsubr
          80 -115 hvcurveto
          endchar
        </CharString>
        <CharString name="plus">
          -46 516.99 320 hstem
          208 callsubr
          332 vstem
          1037.99 837 rmoveto
          -332 368.99 -332 -368.99 2 callsubr
          -320 333.99 -371.02 332 371.02 332 hlineto
          endchar
        </CharString>
        <CharString name="plusminus">
          -26 0.98 295.01 408.01001 304.98 hstem
          381.99 310.98 vstem
          692.98 1008.99 rmoveto
          292 -310.99 -292 -300.01 -304.98 300.01 -329.02 310.99 329.02 305.01 304.98 vlineto
          -903 -1008 rmoveto
          886 295.02 -886 hlineto
          endchar
        </CharString>
</ttFont>
